<svg width="24" height="24" viewBox="0 0 24 24" fill="none" xmlns="http://www.w3.org/2000/svg">
<path fill-rule="evenodd" clip-rule="evenodd" d="M17.3539 2.07009C17.7811 2.23891 18.0383 2.67699 17.9776 3.13225L17.1285 9.50008H20.9663C21.187 9.50003 21.4158 9.49998 21.6048 9.51726C21.7907 9.53425 22.1289 9.5793 22.4312 9.81263C22.7838 10.0847 22.9972 10.4994 23.0137 10.9445C23.0279 11.3261 22.8679 11.6275 22.7737 11.7887C22.6779 11.9525 22.5449 12.1386 22.4166 12.3182L15.8001 21.5813C15.5331 21.9551 15.0459 22.0989 14.6188 21.9301C14.1916 21.7613 13.9344 21.3232 13.9951 20.8679L14.8442 14.5001H11.0409C11.0294 14.5001 11.0179 14.5001 11.0064 14.5001C10.7857 14.5001 10.5569 14.5002 10.3679 14.4829C10.182 14.4659 9.84376 14.4209 9.54144 14.1875C9.18888 13.9154 8.97546 13.5007 8.95895 13.0557C8.9448 12.674 9.10473 12.3726 9.19896 12.2115C9.29474 12.0477 9.42776 11.8615 9.55611 11.6819C9.56281 11.6725 9.56949 11.6632 9.57616 11.6539L16.1726 2.41885C16.4396 2.04511 16.9268 1.90127 17.3539 2.07009ZM11.4295 12.5001H15.9863C16.2746 12.5001 16.5488 12.6245 16.7387 12.8414C16.9286 13.0582 17.0157 13.3465 16.9776 13.6322L16.5088 17.1482L20.5432 11.5001H15.9863C15.6981 11.5001 15.4238 11.3757 15.234 11.1588C15.0441 10.9419 14.957 10.6537 14.9951 10.3679L15.4639 6.85195L11.4295 12.5001ZM2.98633 6.50008C2.98633 5.9478 3.43405 5.50008 3.98633 5.50008H8.98633C9.53861 5.50008 9.98633 5.9478 9.98633 6.50008C9.98633 7.05237 9.53861 7.50008 8.98633 7.50008H3.98633C3.43405 7.50008 2.98633 7.05237 2.98633 6.50008ZM0.986328 12.0001C0.986328 11.4478 1.43405 11.0001 1.98633 11.0001H6.48633C7.03861 11.0001 7.48633 11.4478 7.48633 12.0001C7.48633 12.5524 7.03861 13.0001 6.48633 13.0001H1.98633C1.43405 13.0001 0.986328 12.5524 0.986328 12.0001ZM2.48633 17.5001C2.48633 16.9478 2.93405 16.5001 3.48633 16.5001H8.98633C9.53861 16.5001 9.98633 16.9478 9.98633 17.5001C9.98633 18.0524 9.53861 18.5001 8.98633 18.5001H3.48633C2.93405 18.5001 2.48633 18.0524 2.48633 17.5001Z" fill="#9373EE"/>
</svg>
