<svg width="66" height="74" viewBox="0 0 66 74" fill="none" xmlns="http://www.w3.org/2000/svg">
<path d="M55.6655 16.1893C51.4971 14.0781 47.027 12.5226 42.3533 11.6317C42.2682 11.6145 42.1832 11.6574 42.1394 11.7434C41.5645 12.872 40.9277 14.3445 40.4818 15.5018C35.4549 14.6711 30.4539 14.6711 25.5301 15.5018C25.0841 14.3187 24.4242 12.872 23.8467 11.7434C23.8029 11.6603 23.7178 11.6173 23.6327 11.6317C18.9616 12.5197 14.4916 14.0752 10.3206 16.1893C10.2845 16.2065 10.2535 16.2352 10.233 16.2724C1.7543 30.2548 -0.568371 43.8935 0.571051 57.3631C0.576207 57.429 0.609719 57.4921 0.656121 57.5321C6.25012 62.0668 11.6689 64.8198 16.987 66.6446C17.0721 66.6732 17.1623 66.6389 17.2164 66.5615C18.4744 64.6652 19.5958 62.6656 20.5573 60.5629C20.6141 60.4398 20.5599 60.2936 20.4439 60.2449C18.6652 59.5001 16.9715 58.592 15.3423 57.5608C15.2134 57.4777 15.2031 57.2743 15.3216 57.1769C15.6645 56.8933 16.0074 56.5982 16.3348 56.3003C16.394 56.2459 16.4766 56.2344 16.5462 56.2688C27.2495 61.663 38.8371 61.663 49.4141 56.2688C49.4837 56.2315 49.5663 56.243 49.6281 56.2974C49.9555 56.5953 50.2984 56.8933 50.6438 57.1769C50.7624 57.2743 50.7546 57.4777 50.6257 57.5608C48.9965 58.6121 47.3028 59.5001 45.5215 60.2421C45.4055 60.2908 45.354 60.4398 45.4107 60.5629C46.3928 62.6627 47.5142 64.6622 48.749 66.5586C48.8006 66.6389 48.8934 66.6732 48.9785 66.6446C54.3224 64.8198 59.7411 62.0668 65.3351 57.5321C65.3841 57.4921 65.415 57.4319 65.4202 57.366C66.7838 41.7936 63.1361 28.2668 55.7505 16.2753C55.7325 16.2352 55.7016 16.2065 55.6655 16.1893ZM22.1557 49.1615C18.9333 49.1615 16.2781 45.8959 16.2781 41.8853C16.2781 37.8748 18.8818 34.6091 22.1557 34.6091C25.4553 34.6091 28.0848 37.9035 28.0332 41.8853C28.0332 45.8959 25.4295 49.1615 22.1557 49.1615ZM43.8871 49.1615C40.6648 49.1615 38.0096 45.8959 38.0096 41.8853C38.0096 37.8748 40.6132 34.6091 43.8871 34.6091C47.1868 34.6091 49.8162 37.9035 49.7648 41.8853C49.7648 45.8959 47.1868 49.1615 43.8871 49.1615Z" fill="white"/>
</svg>
