<svg width="128" height="119" viewBox="0 0 128 119" fill="none" xmlns="http://www.w3.org/2000/svg">
<path d="M57.5141 43.5588C63.1778 39.6011 71.2921 38.3631 69.1548 29.3163C69.0087 23.6996 69.8678 20.3895 64.4718 17.2259C56.3574 12.253 48.273 7.20968 40.296 1.98158C36.9721 -0.197269 33.9246 -0.391538 30.5813 1.68637C22.011 7.01161 13.3913 12.2416 4.8087 17.5402C2.0112 19.2657 0.505933 21.7322 0.548186 25.4176C0.671425 35.9119 0.81931 46.4157 0.537623 56.9043C0.412624 61.5153 2.12739 64.3303 5.5939 66.4291C13.9759 71.501 22.3719 76.5463 30.6922 81.7363C33.671 83.5933 36.4897 83.7057 39.4245 81.8887C55.4648 71.9905 71.4259 61.9457 87.4909 52.099C91.1211 49.8858 94.7549 50.143 98.3675 52.5199C119.061 64.974 114.674 60.9858 115.161 85.6179C115.596 94.9446 103.774 97.434 98.0682 102.283C94.1105 104.932 90.3341 104.597 86.4733 102.121C75.609 94.4399 67.5932 95.3446 69.9365 78.3309C70.0527 76.4492 69.2974 75.813 67.7569 76.7501C64.9101 78.4814 62.1038 80.2907 59.3134 82.1229C58.8697 82.4124 58.2711 83.0048 58.2817 83.4409C58.3961 88.2424 58.3979 93.0705 58.9489 97.8206C59.1039 99.1424 60.7922 100.565 62.0809 101.376C70.5439 106.709 79.1582 111.762 87.5771 117.171C91.2743 119.544 94.5506 119.232 98.0752 117.025C105.908 112.118 113.732 107.185 121.688 102.517C125.765 100.125 127.559 96.8188 127.471 91.8116C127.309 82.6315 127.205 73.4323 127.571 64.2636C127.8 58.4965 125.941 54.7902 121.237 52.0685C113.26 47.4556 105.473 42.4599 97.6474 37.546C94.2848 35.4357 91.0753 35.1843 87.6123 37.3689C71.9048 47.2804 56.1127 57.0357 40.4421 67.0138C36.6657 69.4174 33.2872 69.2803 29.6817 66.9053C9.45301 53.8588 11.872 59.0298 12.1449 33.333C12.0745 29.2153 13.7259 26.4727 16.9494 24.5129C24.6676 20.6751 32.5232 10.6341 41.3611 17.3688C55.8715 28.0764 58.3187 21.7665 57.5141 43.5588Z" fill="url(#paint0_linear_587_9451)"/>
<path d="M57.5141 43.5588C58.3451 21.7969 55.7976 28.0211 41.3593 17.3688C32.5161 10.6265 24.6764 20.6828 16.9494 24.5129C13.7259 26.4727 12.0745 29.2153 12.1449 33.3331C11.8685 58.9308 9.44949 53.895 29.6817 66.9034C33.2872 69.2803 36.6657 69.4174 40.4421 67.0119C56.1127 57.0357 71.9048 47.2804 87.6123 37.3689C91.0753 35.1843 94.2848 35.4357 97.6474 37.5479C105.473 42.4599 113.26 47.4575 121.237 52.0704C125.941 54.7902 127.8 58.4965 127.571 64.2636C127.205 73.4323 127.309 82.6315 127.471 91.8116C127.559 96.8188 125.765 100.125 121.688 102.519C113.732 107.187 105.908 112.118 98.0752 117.025C94.5506 119.232 91.2725 119.546 87.5771 117.171C79.1582 111.764 70.5439 106.709 62.0809 101.376C60.7922 100.565 59.1039 99.1424 58.9507 97.8206C58.3979 93.0705 58.3961 88.2424 58.2817 83.4428C58.2711 83.0048 58.8697 82.4144 59.3134 82.1229C62.1038 80.2907 64.9101 78.4814 67.7569 76.752C69.2974 75.8149 70.0527 76.4511 69.9365 78.3328C67.5738 95.318 75.6582 94.4799 86.4733 102.121C90.3341 104.597 94.1105 104.932 98.0682 102.283C103.79 97.4397 115.601 94.9142 115.163 85.6179C114.679 61.0886 119.059 64.934 98.3675 52.5218C94.7566 50.143 91.1211 49.8858 87.4909 52.099C71.4259 61.9476 55.4648 71.9924 39.4263 81.8887C36.4914 83.7057 33.671 83.5933 30.6922 81.7363C22.3719 76.5482 13.9759 71.501 5.5939 66.4291C2.12739 64.3303 0.412624 61.5153 0.537623 56.9043C0.81931 46.4176 0.671425 35.9119 0.548186 25.4176C0.505933 21.7322 2.0112 19.2657 4.8087 17.5402C13.3913 12.2416 22.011 7.0097 30.5813 1.68637C33.9246 -0.391538 36.9721 -0.197269 40.296 1.98158C48.273 7.20968 56.3574 12.253 64.4735 17.2259C69.8467 20.3837 69.0175 23.6787 69.1548 29.3182C71.2886 38.3612 63.1813 39.6049 57.5141 43.5588Z" fill="url(#paint1_linear_587_9451)"/>
<defs>
<linearGradient id="paint0_linear_587_9451" x1="64.0607" y1="0.232422" x2="64.0607" y2="118.82" gradientUnits="userSpaceOnUse">
<stop stop-color="#F30CF5"/>
<stop offset="1" stop-color="#5D4494"/>
</linearGradient>
<linearGradient id="paint1_linear_587_9451" x1="64.0607" y1="0.232422" x2="64.0607" y2="118.821" gradientUnits="userSpaceOnUse">
<stop stop-color="#F30CF5"/>
<stop offset="1" stop-color="#5D4494"/>
</linearGradient>
</defs>
</svg>
