<svg width="61" height="33" viewBox="0 0 61 33" fill="none" xmlns="http://www.w3.org/2000/svg">
<path d="M23.489 16.8506C23.6756 17.1433 24.807 18.3515 26.2825 20.0301C28.0458 22.0361 30.0341 24.2963 30.2668 24.5522C30.6942 25.0226 31.0089 24.6981 31.6481 23.467C32.5333 21.7624 34.3579 18.0264 36.9226 14.6165C39.4871 11.2066 43.334 7.44411 44.2499 6.73862C45.1658 6.03298 45.5934 5.56271 44.9828 5.3275C44.372 5.09228 39.6036 8.33945 36.8212 11.2416C33.8335 14.3578 30.5969 19.4451 29.7945 19.565C29.1521 19.6611 26.0426 17.4157 25.1609 16.8882C24.1373 16.2756 23.0032 16.0891 23.489 16.8506Z" fill="#12FF7E"/>
<mask id="mask0_749_11791" style="mask-type:luminance" maskUnits="userSpaceOnUse" x="18" y="4" width="27" height="25">
<path d="M18.8203 4.37695H44.0447V28.6381H18.8203V4.37695Z" fill="white"/>
</mask>
<g mask="url(#mask0_749_11791)">
<path d="M41.7282 23.0894C41.7282 24.9332 40.1703 26.4331 38.2555 26.4331H24.5839C22.6691 26.4331 21.1111 24.9332 21.1111 23.0894V9.92629C21.1111 8.08261 22.6691 6.58252 24.5839 6.58252H38.2555C38.7231 6.58252 39.1692 6.6726 39.5769 6.83477C39.9257 6.56756 40.28 6.3045 40.6366 6.04892C40.9773 5.80463 41.2892 5.58883 41.5773 5.39563C40.6376 4.75508 39.4919 4.37695 38.2555 4.37695H24.5839C21.4058 4.37695 18.8203 6.86644 18.8203 9.92629V23.0894C18.8203 26.1494 21.4058 28.6387 24.5839 28.6387H38.2555C41.4335 28.6387 44.0191 26.1494 44.0191 23.0894V9.92629C44.0191 9.62264 43.9926 9.32488 43.9436 9.03429C43.3234 9.63442 42.5497 10.4157 41.7282 11.2927V23.0894Z" fill="#12FF7E"/>
</g>
</svg>
