<svg width="112" height="112" viewBox="0 0 112 112" fill="none" xmlns="http://www.w3.org/2000/svg">
<g opacity="0.1" filter="url(#filter0_d_248_6048)">
<path fill-rule="evenodd" clip-rule="evenodd" d="M56 85C72.0163 85 85 72.0163 85 56C85 39.9837 72.0163 27 56 27C39.9837 27 27 39.9837 27 56C27 72.0163 39.9837 85 56 85Z" fill="#FF00E5"/>
</g>
<g clip-path="url(#clip0_248_6048)">
<path d="M58.3477 52.0952C57.0314 52.0952 55.9986 53.5617 55.9986 53.5617C55.9986 53.5617 55.0244 52.0952 53.6489 52.0952C52.311 52.0952 51.2185 53.1978 51.1469 54.5327C51.1067 55.2869 51.35 55.8609 51.6928 56.3807C52.3779 57.4193 56.003 59.9051 56.003 59.9051C56.003 59.9051 59.6145 57.4284 60.3041 56.3807C60.6476 55.8585 60.8903 55.2869 60.8498 54.5327C60.7783 53.1978 59.6857 52.0952 58.3477 52.0952Z" fill="#ED00E6"/>
<path d="M55.998 67.021H55.9979C55.6959 67.0211 55.4511 67.2659 55.4512 67.568L55.4513 68.1071C55.4513 68.4091 55.6962 68.6539 55.9982 68.6539H55.9983C56.3003 68.6538 56.5451 68.4089 56.545 68.1069L56.5449 67.5678C56.5449 67.2658 56.3 67.021 55.998 67.021Z" fill="url(#paint0_linear_248_6048)"/>
<path d="M59.2031 66.0156C58.9896 65.8021 58.6433 65.8021 58.4297 66.0156C58.2161 66.2292 58.2161 66.5755 58.4297 66.7891L58.6662 67.0256C58.773 67.1324 58.913 67.1858 59.0529 67.1858C59.1929 67.1858 59.3328 67.1324 59.4396 67.0256C59.6531 66.8121 59.6531 66.4658 59.4396 66.2522L59.2031 66.0156Z" fill="url(#paint1_linear_248_6048)"/>
<path d="M52.7971 66.0147L52.5606 66.2512C52.347 66.4647 52.347 66.811 52.5606 67.0246C52.6674 67.1314 52.8073 67.1848 52.9473 67.1848C53.0872 67.1848 53.2272 67.1314 53.3339 67.0246L53.5705 66.7881C53.784 66.5745 53.784 66.2283 53.5705 66.0147C53.357 65.8011 53.0106 65.8011 52.7971 66.0147Z" fill="url(#paint2_linear_248_6048)"/>
<path d="M56.0001 44.9786H56.0002C56.3022 44.9785 56.547 44.7336 56.547 44.4316L56.5469 43.8925C56.5468 43.5905 56.302 43.3457 56 43.3457H55.9999C55.6978 43.3458 55.4531 43.5906 55.4531 43.8927L55.4532 44.4318C55.4533 44.7338 55.6981 44.9786 56.0001 44.9786Z" fill="url(#paint3_linear_248_6048)"/>
<path d="M53.334 44.9746C53.1204 44.7611 52.7742 44.7611 52.5606 44.9746C52.347 45.1882 52.347 45.5345 52.5606 45.7481L52.7971 45.9846C52.9039 46.0914 53.0438 46.1448 53.1838 46.1448C53.3237 46.1448 53.4637 46.0914 53.5705 45.9846C53.784 45.771 53.784 45.4248 53.5705 45.2111L53.334 44.9746Z" fill="url(#paint4_linear_248_6048)"/>
<path d="M58.6662 44.9751L58.4297 45.2117C58.2161 45.4252 58.2161 45.7715 58.4297 45.9851C58.5365 46.0919 58.6764 46.1453 58.8164 46.1453C58.9563 46.1453 59.0963 46.0919 59.2031 45.9851L59.4396 45.7486C59.6532 45.535 59.6532 45.1888 59.4396 44.9751C59.226 44.7615 58.8798 44.7615 58.6662 44.9751Z" fill="url(#paint5_linear_248_6048)"/>
<path d="M51.2985 47.7386C51.2985 47.1595 51.073 46.6152 50.6636 46.2057C50.2542 45.7963 49.7098 45.5708 49.1308 45.5708C48.5518 45.5708 48.0074 45.7963 47.598 46.2057C45.822 47.9817 44.5674 50.198 43.9614 52.626C42.7906 53.2959 42 54.5574 42 56.0001C42 57.4429 42.7906 58.7044 43.9614 59.3743C44.5674 61.8023 45.822 64.0185 47.598 65.7946C48.0074 66.204 48.5518 66.4295 49.1308 66.4295C49.7098 66.4295 50.2542 66.204 50.6636 65.7946C51.5088 64.9494 51.5088 63.5741 50.6636 62.7289C49.6144 61.6797 48.8225 60.3932 48.36 58.9912C49.22 58.2781 49.7687 57.202 49.7687 56.0001C49.7687 54.7983 49.22 53.7222 48.36 53.0091C48.8225 51.6072 49.6144 50.3206 50.6636 49.2714C51.073 48.8619 51.2985 48.3176 51.2985 47.7386ZM49.8902 63.5023C50.3089 63.921 50.3089 64.6024 49.8902 65.0211C49.6874 65.224 49.4176 65.3357 49.1308 65.3357C48.844 65.3357 48.5743 65.224 48.3714 65.0211C46.9129 63.5627 45.8364 61.782 45.2246 59.8284C45.4391 59.8652 45.6595 59.8844 45.8843 59.8844C46.4233 59.8844 46.937 59.7741 47.4041 59.5747C47.9292 61.045 48.7807 62.3928 49.8902 63.5023ZM48.6749 56.0001C48.6749 57.5389 47.4231 58.7907 45.8843 58.7907C44.3456 58.7907 43.0938 57.5389 43.0938 56.0001C43.0938 54.4614 44.3456 53.2096 45.8843 53.2096C47.4231 53.2096 48.6749 54.4614 48.6749 56.0001ZM49.8902 48.4979C48.7806 49.6075 47.9291 50.9553 47.4041 52.4254C46.937 52.2262 46.4233 52.1157 45.8843 52.1157C45.6595 52.1157 45.4391 52.1349 45.2246 52.1718C45.8363 50.2181 46.9129 48.4375 48.3714 46.9791C48.5742 46.7763 48.8439 46.6646 49.1308 46.6646C49.4176 46.6646 49.6874 46.7763 49.8902 46.9791C50.093 47.1819 50.2048 47.4517 50.2048 47.7385C50.2048 48.0253 50.0931 48.2951 49.8902 48.4979Z" fill="url(#paint6_linear_248_6048)"/>
<path d="M69.9997 56.0001C69.9997 54.5574 69.209 53.2959 68.0383 52.626C67.4322 50.198 66.1777 47.9818 64.4017 46.2057C63.9923 45.7963 63.4479 45.5708 62.8689 45.5708C62.2898 45.5708 61.7455 45.7963 61.336 46.2057C60.4908 47.0509 60.4908 48.4261 61.336 49.2714C62.3853 50.3206 63.1772 51.6071 63.6397 53.0091C62.7797 53.7222 62.231 54.7983 62.231 56.0001C62.231 57.202 62.7797 58.2781 63.6397 58.9912C63.1772 60.3931 62.3853 61.6797 61.336 62.7289C60.9266 63.1383 60.7012 63.6827 60.7012 64.2617C60.7012 64.8408 60.9266 65.3851 61.336 65.7946C61.7455 66.204 62.2898 66.4295 62.8689 66.4295C63.4478 66.4295 63.9923 66.204 64.4017 65.7946C66.1777 64.0186 67.4322 61.8023 68.0383 59.3743C69.209 58.7044 69.9997 57.4429 69.9997 56.0001ZM62.1095 48.498C61.6907 48.0793 61.6907 47.3979 62.1095 46.9792C62.3123 46.7763 62.582 46.6646 62.8689 46.6646C63.1557 46.6646 63.4254 46.7763 63.6283 46.9792C65.0868 48.4376 66.1633 50.2183 66.775 52.1719C66.5606 52.1351 66.3401 52.1159 66.1154 52.1159C65.5764 52.1159 65.0626 52.2262 64.5956 52.4256C64.0705 50.9553 63.219 49.6075 62.1095 48.498ZM63.3247 56.0001C63.3247 54.4614 64.5766 53.2096 66.1153 53.2096C67.6541 53.2096 68.9059 54.4614 68.9059 56.0001C68.9059 57.5389 67.6541 58.7907 66.1153 58.7907C64.5766 58.7907 63.3247 57.5389 63.3247 56.0001ZM63.6283 65.0211C63.4255 65.224 63.1558 65.3357 62.8689 65.3357C62.5821 65.3357 62.3123 65.224 62.1095 65.0211C61.9066 64.8183 61.7949 64.5486 61.7949 64.2617C61.7949 63.9749 61.9066 63.7052 62.1095 63.5023C63.219 62.3928 64.0706 61.045 64.5956 59.5748C65.0626 59.7741 65.5763 59.8845 66.1154 59.8845C66.3402 59.8845 66.5606 59.8653 66.775 59.8285C66.1633 61.7821 65.0867 63.5627 63.6283 65.0211Z" fill="url(#paint7_linear_248_6048)"/>
</g>
<defs>
<filter id="filter0_d_248_6048" x="0" y="0" width="112" height="112" filterUnits="userSpaceOnUse" color-interpolation-filters="sRGB">
<feFlood flood-opacity="0" result="BackgroundImageFix"/>
<feColorMatrix in="SourceAlpha" type="matrix" values="0 0 0 0 0 0 0 0 0 0 0 0 0 0 0 0 0 0 127 0" result="hardAlpha"/>
<feOffset/>
<feGaussianBlur stdDeviation="13.5"/>
<feComposite in2="hardAlpha" operator="out"/>
<feColorMatrix type="matrix" values="0 0 0 0 0.86 0 0 0 0 0 0 0 0 0 1 0 0 0 1 0"/>
<feBlend mode="normal" in2="BackgroundImageFix" result="effect1_dropShadow_248_6048"/>
<feBlend mode="normal" in="SourceGraphic" in2="effect1_dropShadow_248_6048" result="shape"/>
</filter>
<linearGradient id="paint0_linear_248_6048" x1="55.9981" y1="67.021" x2="55.9981" y2="68.6539" gradientUnits="userSpaceOnUse">
<stop stop-color="#FF00F8"/>
<stop offset="1" stop-color="#B603AE"/>
</linearGradient>
<linearGradient id="paint1_linear_248_6048" x1="58.9346" y1="65.8555" x2="58.9346" y2="67.1858" gradientUnits="userSpaceOnUse">
<stop stop-color="#FF00F8"/>
<stop offset="1" stop-color="#B603AE"/>
</linearGradient>
<linearGradient id="paint2_linear_248_6048" x1="53.0655" y1="65.8545" x2="53.0655" y2="67.1848" gradientUnits="userSpaceOnUse">
<stop stop-color="#FF00F8"/>
<stop offset="1" stop-color="#B603AE"/>
</linearGradient>
<linearGradient id="paint3_linear_248_6048" x1="56" y1="43.3457" x2="56" y2="44.9786" gradientUnits="userSpaceOnUse">
<stop stop-color="#FF00F8"/>
<stop offset="1" stop-color="#B603AE"/>
</linearGradient>
<linearGradient id="paint4_linear_248_6048" x1="53.0655" y1="44.8145" x2="53.0655" y2="46.1448" gradientUnits="userSpaceOnUse">
<stop stop-color="#FF00F8"/>
<stop offset="1" stop-color="#B603AE"/>
</linearGradient>
<linearGradient id="paint5_linear_248_6048" x1="58.9346" y1="44.8149" x2="58.9346" y2="46.1453" gradientUnits="userSpaceOnUse">
<stop stop-color="#FF00F8"/>
<stop offset="1" stop-color="#B603AE"/>
</linearGradient>
<linearGradient id="paint6_linear_248_6048" x1="46.6493" y1="45.5708" x2="46.6493" y2="66.4295" gradientUnits="userSpaceOnUse">
<stop stop-color="#FF00F8"/>
<stop offset="1" stop-color="#B603AE"/>
</linearGradient>
<linearGradient id="paint7_linear_248_6048" x1="65.3504" y1="45.5708" x2="65.3504" y2="66.4295" gradientUnits="userSpaceOnUse">
<stop stop-color="#FF00F8"/>
<stop offset="1" stop-color="#B603AE"/>
</linearGradient>
<clipPath id="clip0_248_6048">
<rect width="28" height="28" fill="white" transform="translate(42 42)"/>
</clipPath>
</defs>
</svg>
