<svg width="186" height="186" viewBox="0 0 186 186" fill="none" xmlns="http://www.w3.org/2000/svg">
<g opacity="0.1" filter="url(#filter0_d_248_6019)">
<path fill-rule="evenodd" clip-rule="evenodd" d="M93 122C109.016 122 122 109.016 122 93C122 76.9837 109.016 64 93 64C76.9837 64 64 76.9837 64 93C64 109.016 76.9837 122 93 122Z" fill="#46D9BF"/>
</g>
<g clip-path="url(#clip0_248_6019)">
<path d="M87.898 89.9162C87.8234 89.7697 87.6773 89.6735 87.5135 89.6628L83.5878 89.401C83.3843 89.381 83.1962 89.507 83.122 89.6964L80.2919 96.9292C80.2159 97.1233 80.2779 97.344 80.4441 97.4705C80.5271 97.5339 80.627 97.5657 80.7264 97.5657C80.8248 97.5657 80.9233 97.5349 81.0064 97.4724L83.3554 95.7109L84.7231 95.9843C84.9462 96.0286 85.1692 95.9064 85.2504 95.6931C85.9849 93.7692 86.8691 91.9802 87.8775 90.3764C87.9648 90.2372 87.9727 90.0622 87.898 89.9162ZM84.5215 94.9922L83.3335 94.7547C83.2037 94.729 83.0684 94.7598 82.962 94.8391L81.7586 95.7415L83.8663 90.3548L86.6839 90.5423C85.8719 91.9166 85.1468 93.4089 84.5215 94.9922Z" fill="#27DFB3"/>
<path d="M96.5987 102.415L96.3369 98.4883C96.3257 98.324 96.2296 98.178 96.0831 98.1033C95.937 98.0287 95.762 98.0361 95.623 98.1238C94.0187 99.1322 92.2301 100.016 90.3062 100.751C90.0934 100.832 89.9702 101.055 90.0151 101.278L90.2885 102.646L88.527 104.994C88.4019 105.162 88.4024 105.391 88.5288 105.557C88.6189 105.676 88.7575 105.742 88.9003 105.742C88.9572 105.742 89.0146 105.731 89.0706 105.71L96.3034 102.88C96.4928 102.806 96.6122 102.618 96.5987 102.415ZM90.2577 104.242L91.1601 103.039C91.2395 102.933 91.2702 102.798 91.2441 102.668L91.0066 101.48C92.5903 100.855 94.0821 100.129 95.4564 99.3175L95.6444 102.135L90.2577 104.242Z" fill="#27DFB3"/>
<path d="M92.5316 93.0005H89.3875C89.2181 93.0005 89.0622 93.0924 88.9796 93.2403L85.0333 100.331C84.9306 100.516 84.9652 100.747 85.1173 100.894C85.2064 100.98 85.3235 101.025 85.4411 101.025C85.5242 101.025 85.6077 101.003 85.6824 100.957L92.7733 96.6659C92.9128 96.5815 92.9982 96.4303 92.9982 96.267V93.4671C92.9983 93.2096 92.7892 93.0005 92.5316 93.0005ZM92.0651 96.0042L86.7039 99.2487L89.6614 93.9342V93.9337H92.0651V96.0042Z" fill="#27DFB3"/>
<path d="M106.978 79.4499C106.959 79.2226 106.779 79.0425 106.551 79.0234C106.396 79.0112 91.0298 77.9384 84.3785 95.3597C84.3127 95.5319 84.3542 95.726 84.4844 95.8562L86.7032 98.075C86.8073 98.1791 86.9529 98.2266 87.0989 98.2071C87.2441 98.1861 87.371 98.0983 87.4419 97.97L89.6649 93.9337H92.0672V96.0097L88.0066 98.5734C87.8866 98.6494 87.8078 98.7754 87.7919 98.9164C87.7761 99.0573 87.8255 99.1977 87.9258 99.2981L90.1447 101.517C90.2338 101.606 90.3528 101.654 90.4746 101.654C90.5306 101.654 90.587 101.644 90.6412 101.623C108.063 94.971 106.991 79.6044 106.978 79.4499ZM104.53 87.7289C102.892 91.7801 99.1454 97.2878 90.5898 100.642L88.9985 99.0512L92.7829 96.662C92.9182 96.5762 93.0004 96.4273 93.0004 96.2673V93.4675C93.0004 93.2099 92.7913 93.0008 92.5337 93.0008H89.3886C89.2183 93.0008 89.062 93.0937 88.9798 93.2425L86.9234 96.9765L85.3588 95.4114C91.1978 80.5157 103.644 79.9062 106.063 79.9403C106.08 81.0285 105.981 84.1391 104.53 87.7289Z" fill="#00FFB2"/>
<path d="M86.9934 99.6102C86.8921 99.4758 86.7307 99.4105 86.5725 99.4273C86.5888 99.2686 86.5235 99.1076 86.3895 99.0063C85.6859 98.4744 84.7778 98.2975 83.8973 98.5205C82.9626 98.7581 82.1983 99.3955 81.8007 100.27L79.042 106.34C78.9613 106.517 78.9991 106.726 79.1367 106.863C79.2259 106.953 79.3453 107 79.4666 107C79.532 107 79.5978 106.986 79.6599 106.958L85.7293 104.199C86.6038 103.801 87.2412 103.037 87.4787 102.102C87.7022 101.223 87.5254 100.314 86.9934 99.6102ZM86.5744 101.873C86.4073 102.531 85.9584 103.069 85.3434 103.349L80.4064 105.593L82.6505 100.656C82.93 100.041 83.4685 99.592 84.1269 99.425C84.3 99.3811 84.4741 99.3596 84.6458 99.3596C84.9365 99.3596 85.2206 99.4217 85.4796 99.5425L85.0354 100.329C84.9323 100.511 84.9636 100.74 85.1119 100.888C85.2603 101.037 85.4894 101.068 85.6714 100.965L86.4577 100.52C86.649 100.932 86.6924 101.407 86.5744 101.873Z" fill="#27DFB3"/>
<path d="M106.977 79.4504C106.957 79.2231 106.777 79.043 106.55 79.0239C106.368 79.0094 102.042 78.6818 96.9551 81.0252C96.8165 81.0887 96.718 81.2165 96.691 81.3668C96.6639 81.5171 96.7124 81.671 96.8202 81.7788L104.221 89.1796C104.309 89.2678 104.428 89.3163 104.551 89.3163C104.578 89.3163 104.606 89.314 104.634 89.3093C104.784 89.2823 104.911 89.1838 104.975 89.0452C107.319 83.958 106.991 79.6319 106.977 79.4504ZM104.4 88.0378L97.9621 81.6001C101.686 80.028 104.948 79.9197 106.062 79.9385C106.081 81.0542 105.976 84.3052 104.4 88.0378Z" fill="#27DFB3"/>
<path d="M99.6087 86.3913C98.0394 84.822 95.4865 84.822 93.9172 86.3913C92.3479 87.9606 92.3479 90.5135 93.9172 92.0828C94.7016 92.8677 95.7324 93.2597 96.7627 93.2597C97.7935 93.2597 98.8238 92.8672 99.6087 92.0828C101.178 90.5135 101.178 87.9606 99.6087 86.3913ZM98.9489 91.423C97.7436 92.6283 95.7824 92.6283 94.5771 91.423C93.3718 90.2177 93.3718 88.2564 94.5771 87.0511C95.1795 86.4487 95.9714 86.1473 96.7628 86.1473C97.5542 86.1473 98.3461 86.4487 98.949 87.0511C100.154 88.2564 100.154 90.2177 98.9489 91.423Z" fill="#27DFB3"/>
<path d="M97.6898 90.1648C97.1783 90.6772 96.3459 90.6767 95.834 90.1648C95.3225 89.6529 95.3225 88.8209 95.834 88.309C96.3454 87.7976 97.1778 87.7971 97.6898 88.309C97.8718 88.4914 98.1676 88.4914 98.3496 88.309C98.532 88.1266 98.532 87.8316 98.3496 87.6492C97.4746 86.7738 96.0495 86.7738 95.1742 87.6492C94.2987 88.5246 94.2987 89.9492 95.1742 90.8246C95.6119 91.2623 96.1872 91.4812 96.7621 91.4812C97.3375 91.4812 97.9123 91.2623 98.3496 90.8246C98.532 90.6422 98.532 90.3472 98.3496 90.1648C98.1676 89.9824 97.8718 89.9824 97.6898 90.1648Z" fill="#27DFB3"/>
</g>
<defs>
<filter id="filter0_d_248_6019" x="0" y="0" width="186" height="186" filterUnits="userSpaceOnUse" color-interpolation-filters="sRGB">
<feFlood flood-opacity="0" result="BackgroundImageFix"/>
<feColorMatrix in="SourceAlpha" type="matrix" values="0 0 0 0 0 0 0 0 0 0 0 0 0 0 0 0 0 0 127 0" result="hardAlpha"/>
<feOffset/>
<feGaussianBlur stdDeviation="32"/>
<feColorMatrix type="matrix" values="0 0 0 0 0.141176 0 0 0 0 0.988235 0 0 0 0 0.835765 0 0 0 1 0"/>
<feBlend mode="normal" in2="BackgroundImageFix" result="effect1_dropShadow_248_6019"/>
<feBlend mode="normal" in="SourceGraphic" in2="effect1_dropShadow_248_6019" result="shape"/>
</filter>
<clipPath id="clip0_248_6019">
<rect width="28" height="28" fill="white" transform="translate(79 79)"/>
</clipPath>
</defs>
</svg>
