<svg width="273" height="270" viewBox="0 0 273 270" fill="none" xmlns="http://www.w3.org/2000/svg">
<g opacity="0.1" filter="url(#filter0_d_248_5981)">
<path fill-rule="evenodd" clip-rule="evenodd" d="M136.5 186C165.495 186 189 163.167 189 135C189 106.833 165.495 84 136.5 84C107.505 84 84 106.833 84 135C84 163.167 107.505 186 136.5 186Z" fill="#D9B346"/>
<path fill-rule="evenodd" clip-rule="evenodd" d="M136.5 186C165.495 186 189 163.167 189 135C189 106.833 165.495 84 136.5 84C107.505 84 84 106.833 84 135C84 163.167 107.505 186 136.5 186Z" stroke="#E90A0A"/>
</g>
<g clip-path="url(#clip0_248_5981)">
<path d="M160.156 126.129L157.383 127.184C158.463 129.694 159.012 132.355 159.012 135.094C159.012 146.726 148.958 156.188 136.6 156.188C131.149 156.188 125.925 154.298 121.865 150.96L126.339 150.345L125.91 147.562L117.176 148.759V156.188H120.164V153.28C124.729 156.932 130.537 159 136.6 159C150.604 159 162 148.276 162 135.094C162 131.991 161.378 128.976 160.156 126.129Z" fill="#FEE400"/>
<path d="M136.4 113.812C141.851 113.812 147.075 115.702 151.135 119.04L146.661 119.655L147.09 122.438L155.824 121.241V113.812H152.836V116.72C148.271 113.068 142.463 111 136.4 111C122.396 111 111 121.724 111 134.906C111 138.009 111.622 141.024 112.844 143.871L115.617 142.816C114.537 140.306 113.988 137.645 113.988 134.906C113.988 123.274 124.042 113.812 136.4 113.812Z" fill="#FEE400"/>
<path d="M149.947 136.406V133.594H146.808C146.552 131.934 145.87 130.417 144.847 129.132L147.064 127.045L144.951 125.056L142.734 127.144C141.369 126.181 139.757 125.539 137.994 125.298V122.344H135.006V125.298C133.243 125.539 131.631 126.181 130.266 127.144L128.049 125.056L125.936 127.045L128.153 129.132C127.13 130.417 126.448 131.934 126.192 133.594H123.053V136.406H126.192C126.448 138.066 127.13 139.583 128.153 140.868L125.936 142.955L128.049 144.944L130.266 142.856C131.631 143.819 133.243 144.461 135.006 144.702V147.656H137.994V144.702C139.757 144.461 141.369 143.819 142.734 142.856L144.951 144.944L147.064 142.955L144.847 140.868C145.87 139.583 146.552 138.066 146.808 136.406H149.947ZM136.5 139.219C134.028 139.219 132.018 137.326 132.018 135C132.018 132.674 134.028 130.781 136.5 130.781C138.972 130.781 140.982 132.674 140.982 135C140.982 137.326 138.972 139.219 136.5 139.219Z" fill="#FEE400"/>
</g>
<defs>
<filter id="filter0_d_248_5981" x="0" y="0" width="273" height="270" filterUnits="userSpaceOnUse" color-interpolation-filters="sRGB">
<feFlood flood-opacity="0" result="BackgroundImageFix"/>
<feColorMatrix in="SourceAlpha" type="matrix" values="0 0 0 0 0 0 0 0 0 0 0 0 0 0 0 0 0 0 127 0" result="hardAlpha"/>
<feOffset/>
<feGaussianBlur stdDeviation="42"/>
<feColorMatrix type="matrix" values="0 0 0 0 0.988235 0 0 0 0 0.729412 0 0 0 0 0.141176 0 0 0 1 0"/>
<feBlend mode="normal" in2="BackgroundImageFix" result="effect1_dropShadow_248_5981"/>
<feBlend mode="normal" in="SourceGraphic" in2="effect1_dropShadow_248_5981" result="shape"/>
</filter>
<clipPath id="clip0_248_5981">
<rect width="51" height="48" fill="white" transform="translate(111 111)"/>
</clipPath>
</defs>
</svg>
