<svg width="29" height="26" viewBox="0 0 29 26" fill="none" xmlns="http://www.w3.org/2000/svg">
<path fill-rule="evenodd" clip-rule="evenodd" d="M24.5658 2.17749C22.6885 1.16025 20.6813 0.420959 18.5828 0C18.3251 0.539654 18.024 1.2655 17.8164 1.84291C15.5857 1.45436 13.3755 1.45436 11.1857 1.84291C10.9782 1.2655 10.6703 0.539654 10.4102 0C8.30947 0.420959 6.29995 1.16297 4.42273 2.18288C0.63636 8.8097 -0.390063 15.2719 0.123149 21.6424C2.63447 23.8144 5.06824 25.1339 7.46094 25.9973C8.05171 25.0556 8.5786 24.0546 9.0325 22.9996C8.16803 22.6192 7.34005 22.1497 6.55771 21.6046C6.76526 21.4265 6.96828 21.2404 7.16443 21.0488C11.9362 23.6337 17.1208 23.6337 21.8355 21.0488C22.0339 21.2404 22.2369 21.4265 22.4422 21.6046C21.6575 22.1523 20.8273 22.6218 19.9628 23.0023C20.4167 24.0546 20.9413 25.0584 21.5344 26C23.9294 25.1366 26.3654 23.8172 28.8767 21.6424C29.4789 14.2574 27.8481 7.85452 24.5658 2.17749ZM9.68525 17.7239C8.25283 17.7239 7.07812 16.1751 7.07812 14.2891C7.07812 12.403 8.22775 10.8516 9.68525 10.8516C11.1428 10.8516 12.3175 12.4003 12.2924 14.2891C12.2946 16.1751 11.1428 17.7239 9.68525 17.7239ZM16.707 14.2891C16.707 16.1751 17.8817 17.7239 19.3142 17.7239C20.7717 17.7239 21.9213 16.1751 21.9213 14.2891C21.9464 12.4003 20.7717 10.8516 19.3142 10.8516C17.8566 10.8516 16.707 12.403 16.707 14.2891Z" fill="#FED120"/>
</svg>
