<svg width="156" height="156" viewBox="0 0 156 156" fill="none" xmlns="http://www.w3.org/2000/svg">
<g opacity="0.1" filter="url(#filter0_d_587_10160)">
<path fill-rule="evenodd" clip-rule="evenodd" d="M78 129C106.167 129 129 106.167 129 78C129 49.8335 106.167 27 78 27C49.8335 27 27 49.8335 27 78C27 106.167 49.8335 129 78 129Z" fill="#FF00E5"/>
</g>
<g clip-path="url(#clip0_587_10160)">
<path d="M81.8183 71.1333C79.5371 71.1333 77.7474 73.7123 77.7474 73.7123C77.7474 73.7123 76.0591 71.1333 73.6754 71.1333C71.3569 71.1333 69.4635 73.0723 69.3396 75.42C69.2698 76.7462 69.6915 77.7557 70.2856 78.6698C71.4728 80.4963 77.755 84.8679 77.755 84.8679C77.755 84.8679 84.0136 80.5123 85.2087 78.6698C85.804 77.7514 86.2245 76.7462 86.1544 75.42C86.0304 73.0723 84.137 71.1333 81.8183 71.1333V71.1333Z" fill="#ED00E6"/>
<path d="M77.7485 97.3823H77.7483C77.2249 97.3824 76.8007 97.8131 76.8008 98.3443L76.801 99.2923C76.8011 99.8234 77.2254 100.254 77.7487 100.254H77.7489C78.2723 100.254 78.6965 99.8231 78.6964 99.292L78.6962 98.3439C78.6961 97.8128 78.2718 97.3823 77.7485 97.3823Z" fill="url(#paint0_linear_587_10160)"/>
<path d="M83.2976 95.6137C82.9275 95.2381 82.3274 95.2381 81.9572 95.6137C81.5872 95.9893 81.5872 96.5982 81.9572 96.9739L82.3671 97.3899C82.5522 97.5777 82.7947 97.6716 83.0373 97.6716C83.2798 97.6716 83.5224 97.5777 83.7074 97.3899C84.0775 97.0143 84.0775 96.4053 83.7074 96.0297L83.2976 95.6137Z" fill="url(#paint1_linear_587_10160)"/>
<path d="M72.1992 95.6122L71.7893 96.0282C71.4192 96.4038 71.4192 97.0127 71.7893 97.3884C71.9744 97.5762 72.2169 97.6701 72.4594 97.6701C72.7019 97.6701 72.9446 97.5762 73.1296 97.3884L73.5394 96.9724C73.9095 96.5969 73.9095 95.9879 73.5394 95.6122C73.1695 95.2367 72.5693 95.2367 72.1992 95.6122V95.6122Z" fill="url(#paint2_linear_587_10160)"/>
<path d="M77.7526 58.6177H77.7528C78.2762 58.6176 78.7004 58.1869 78.7003 57.6557L78.7001 56.7076C78.7 56.1766 78.2757 55.7461 77.7524 55.7461H77.7522C77.2288 55.7462 76.8046 56.1769 76.8047 56.708L76.8049 57.6561C76.805 58.1872 77.2293 58.6177 77.7526 58.6177V58.6177Z" fill="url(#paint3_linear_587_10160)"/>
<path d="M73.1296 58.6108C72.7596 58.2352 72.1595 58.2352 71.7893 58.6108C71.4192 58.9863 71.4192 59.5953 71.7893 59.971L72.1992 60.3869C72.3843 60.5748 72.6268 60.6686 72.8693 60.6686C73.1118 60.6686 73.3544 60.5748 73.5394 60.3869C73.9095 60.0114 73.9095 59.4024 73.5394 59.0267L73.1296 58.6108Z" fill="url(#paint4_linear_587_10160)"/>
<path d="M82.371 58.6118L81.9612 59.0278C81.5911 59.4033 81.5911 60.0123 81.9612 60.388C82.1462 60.5758 82.3888 60.6697 82.6313 60.6697C82.8738 60.6697 83.1164 60.5758 83.3014 60.388L83.7113 59.972C84.0814 59.5965 84.0814 58.9875 83.7113 58.6118C83.3412 58.2362 82.7411 58.2362 82.371 58.6118V58.6118Z" fill="url(#paint5_linear_587_10160)"/>
<path d="M69.6024 63.471C69.6024 62.4527 69.2116 61.4953 68.5022 60.7753C67.7926 60.0552 66.8492 59.6587 65.8458 59.6587C64.8424 59.6587 63.899 60.0552 63.1894 60.7753C60.1117 63.8985 57.9375 67.7961 56.8873 72.0662C54.8584 73.2442 53.4883 75.4628 53.4883 78C53.4883 80.5371 54.8584 82.7557 56.8873 83.9337C57.9375 88.2037 60.1117 92.1013 63.1894 95.2246C63.899 95.9447 64.8423 96.3412 65.8458 96.3412C66.8492 96.3412 67.7926 95.9447 68.5022 95.2246C69.9669 93.7382 69.9669 91.3197 68.5022 89.8333C66.6839 87.9882 65.3115 85.7257 64.51 83.26C66.0004 82.006 66.9512 80.1136 66.9512 78C66.9512 75.8863 66.0004 73.9939 64.51 72.7399C65.3115 70.2743 66.6839 68.0118 68.5022 66.1666C69.2116 65.4466 69.6024 64.4893 69.6024 63.471V63.471ZM67.1618 91.1934C67.8875 91.9298 67.8875 93.128 67.1618 93.8644C66.8103 94.2211 66.3429 94.4176 65.8458 94.4176C65.3487 94.4176 64.8813 94.2211 64.5297 93.8644C62.0022 91.2995 60.1366 88.1681 59.0765 84.7324C59.4481 84.7972 59.8301 84.8309 60.2197 84.8309C61.1537 84.8309 62.044 84.6369 62.8534 84.2863C63.7634 86.872 65.2391 89.2422 67.1618 91.1934V91.1934ZM65.0558 78C65.0558 80.706 62.8863 82.9075 60.2197 82.9075C57.5531 82.9075 55.3837 80.706 55.3837 78C55.3837 75.2939 57.5531 73.0924 60.2197 73.0924C62.8863 73.0924 65.0558 75.2939 65.0558 78ZM67.1618 64.8064C65.239 66.7577 63.7633 69.1279 62.8534 71.7134C62.044 71.3629 61.1538 71.1688 60.2197 71.1688C59.83 71.1688 59.4481 71.2025 59.0765 71.2673C60.1365 67.8316 62.0022 64.7002 64.5297 62.1354C64.8812 61.7787 65.3486 61.5822 65.8457 61.5822C66.3428 61.5822 66.8103 61.7787 67.1618 62.1354C67.5133 62.4921 67.7069 62.9664 67.7069 63.4709C67.7069 63.9753 67.5134 64.4497 67.1618 64.8064V64.8064Z" fill="url(#paint6_linear_587_10160)"/>
<path d="M102.009 78C102.009 75.4628 100.638 73.2442 98.6096 72.0662C97.5593 67.7962 95.3852 63.8986 92.3074 60.7753C91.5979 60.0552 90.6545 59.6587 89.6511 59.6587C88.6476 59.6587 87.7043 60.0552 86.9947 60.7753C85.53 62.2617 85.53 64.6802 86.9947 66.1666C88.813 68.0117 90.1854 70.2742 90.9869 72.7399C89.4965 73.9939 88.5457 75.8863 88.5457 78C88.5457 80.1136 89.4965 82.006 90.9869 83.26C90.1854 85.7256 88.813 87.9881 86.9947 89.8333C86.2853 90.5533 85.8945 91.5107 85.8945 92.5289C85.8945 93.5472 86.2853 94.5046 86.9947 95.2246C87.7043 95.9447 88.6476 96.3412 89.6511 96.3412C90.6544 96.3412 91.5979 95.9447 92.3074 95.2246C95.3852 92.1014 97.5593 88.2038 98.6096 83.9337C100.638 82.7557 102.009 80.5371 102.009 78V78ZM88.3351 64.8065C87.6094 64.0701 87.6094 62.8719 88.3351 62.1355C88.6866 61.7788 89.154 61.5823 89.6511 61.5823C90.1482 61.5823 90.6156 61.7788 90.9672 62.1355C93.4946 64.7004 95.3602 67.8318 96.4203 71.2675C96.0487 71.2027 95.6667 71.169 95.2772 71.169C94.3431 71.169 93.4529 71.363 92.6435 71.7136C91.7335 69.1279 90.2578 66.7577 88.3351 64.8065V64.8065ZM90.4411 78C90.4411 75.2939 92.6105 73.0924 95.2771 73.0924C97.9437 73.0924 100.113 75.2939 100.113 78C100.113 80.706 97.9437 82.9075 95.2771 82.9075C92.6105 82.9075 90.4411 80.706 90.4411 78ZM90.9672 93.8644C90.6157 94.2211 90.1483 94.4176 89.6512 94.4176C89.1541 94.4176 88.6866 94.2211 88.3351 93.8644C87.9836 93.5077 87.79 93.0334 87.79 92.5289C87.79 92.0245 87.9835 91.5502 88.3351 91.1935C90.2579 89.2422 91.7336 86.872 92.6435 84.2865C93.4529 84.637 94.343 84.8311 95.2772 84.8311C95.6668 84.8311 96.0487 84.7974 96.4203 84.7326C95.3602 88.1682 93.4946 91.2996 90.9672 93.8644Z" fill="url(#paint7_linear_587_10160)"/>
</g>
<defs>
<filter id="filter0_d_587_10160" x="0" y="0" width="156" height="156" filterUnits="userSpaceOnUse" color-interpolation-filters="sRGB">
<feFlood flood-opacity="0" result="BackgroundImageFix"/>
<feColorMatrix in="SourceAlpha" type="matrix" values="0 0 0 0 0 0 0 0 0 0 0 0 0 0 0 0 0 0 127 0" result="hardAlpha"/>
<feOffset/>
<feGaussianBlur stdDeviation="13.5"/>
<feComposite in2="hardAlpha" operator="out"/>
<feColorMatrix type="matrix" values="0 0 0 0 0.86 0 0 0 0 0 0 0 0 0 1 0 0 0 1 0"/>
<feBlend mode="normal" in2="BackgroundImageFix" result="effect1_dropShadow_587_10160"/>
<feBlend mode="normal" in="SourceGraphic" in2="effect1_dropShadow_587_10160" result="shape"/>
</filter>
<linearGradient id="paint0_linear_587_10160" x1="77.7486" y1="97.3823" x2="77.7486" y2="100.254" gradientUnits="userSpaceOnUse">
<stop stop-color="#FF00F8"/>
<stop offset="1" stop-color="#B603AE"/>
</linearGradient>
<linearGradient id="paint1_linear_587_10160" x1="82.8323" y1="95.332" x2="82.8323" y2="97.6716" gradientUnits="userSpaceOnUse">
<stop stop-color="#FF00F8"/>
<stop offset="1" stop-color="#B603AE"/>
</linearGradient>
<linearGradient id="paint2_linear_587_10160" x1="72.6644" y1="95.3306" x2="72.6644" y2="97.6701" gradientUnits="userSpaceOnUse">
<stop stop-color="#FF00F8"/>
<stop offset="1" stop-color="#B603AE"/>
</linearGradient>
<linearGradient id="paint3_linear_587_10160" x1="77.7525" y1="55.7461" x2="77.7525" y2="58.6177" gradientUnits="userSpaceOnUse">
<stop stop-color="#FF00F8"/>
<stop offset="1" stop-color="#B603AE"/>
</linearGradient>
<linearGradient id="paint4_linear_587_10160" x1="72.6644" y1="58.3291" x2="72.6644" y2="60.6686" gradientUnits="userSpaceOnUse">
<stop stop-color="#FF00F8"/>
<stop offset="1" stop-color="#B603AE"/>
</linearGradient>
<linearGradient id="paint5_linear_587_10160" x1="82.8362" y1="58.3301" x2="82.8362" y2="60.6697" gradientUnits="userSpaceOnUse">
<stop stop-color="#FF00F8"/>
<stop offset="1" stop-color="#B603AE"/>
</linearGradient>
<linearGradient id="paint6_linear_587_10160" x1="61.5453" y1="59.6587" x2="61.5453" y2="96.3412" gradientUnits="userSpaceOnUse">
<stop stop-color="#FF00F8"/>
<stop offset="1" stop-color="#B603AE"/>
</linearGradient>
<linearGradient id="paint7_linear_587_10160" x1="93.9515" y1="59.6587" x2="93.9515" y2="96.3412" gradientUnits="userSpaceOnUse">
<stop stop-color="#FF00F8"/>
<stop offset="1" stop-color="#B603AE"/>
</linearGradient>
<clipPath id="clip0_587_10160">
<rect width="48.5233" height="49.2414" fill="white" transform="translate(53.4883 53.3794)"/>
</clipPath>
</defs>
</svg>
