<svg width="156" height="156" viewBox="0 0 156 156" fill="none" xmlns="http://www.w3.org/2000/svg">
<g opacity="0.1" filter="url(#filter0_d_687_6669)">
<path fill-rule="evenodd" clip-rule="evenodd" d="M78 129C106.167 129 129 106.167 129 78C129 49.8335 106.167 27 78 27C49.8335 27 27 49.8335 27 78C27 106.167 49.8335 129 78 129Z" fill="#46D9BF"/>
</g>
<g clip-path="url(#clip0_687_6669)">
<path d="M66.1744 72.5766C66.045 72.319 65.7919 72.1499 65.5081 72.1311L58.7048 71.6707C58.3523 71.6354 58.0263 71.857 57.8977 72.1901L52.9932 84.9098C52.8614 85.2513 52.969 85.6394 53.2569 85.8618C53.4009 85.9733 53.5739 86.0292 53.7461 86.0292C53.9167 86.0292 54.0874 85.9751 54.2313 85.8651L58.3021 82.7673L60.6724 83.2482C61.0589 83.3262 61.4454 83.1111 61.5861 82.7361C62.859 79.3526 64.3914 76.2064 66.1388 73.3859C66.2901 73.1412 66.3038 72.8334 66.1744 72.5766ZM60.3229 81.5034L58.2641 81.0857C58.0393 81.0406 57.8048 81.0947 57.6204 81.2342L55.5349 82.8212L59.1876 73.3479L64.0703 73.6778C62.6632 76.0947 61.4065 78.719 60.3229 81.5034Z" fill="#27DFB3"/>
<path d="M81.2515 94.5569L80.7978 87.6522C80.7784 87.3632 80.6118 87.1065 80.3579 86.9751C80.1048 86.8438 79.8015 86.8569 79.5606 87.0112C76.7804 88.7845 73.6808 90.3396 70.3468 91.6312C69.978 91.7732 69.7645 92.1655 69.8422 92.5585L70.3161 94.9638L67.2634 99.094C67.0467 99.3878 67.0475 99.7916 67.2666 100.084C67.4227 100.292 67.6629 100.408 67.9103 100.408C68.009 100.408 68.1085 100.389 68.2054 100.353L80.7397 95.3758C81.0679 95.2454 81.2749 94.9138 81.2515 94.5569ZM70.2626 97.7714L71.8265 95.655C71.964 95.4687 72.0174 95.2307 71.9721 95.0017L71.5605 92.9132C74.3051 91.8136 76.8903 90.5383 79.2718 89.1104L79.5978 94.0645L70.2626 97.7714Z" fill="#27DFB3"/>
<path d="M74.2055 78.001H68.7567C68.4632 78.001 68.1931 78.1626 68.0499 78.4228L61.2111 90.8931C61.0332 91.218 61.093 91.625 61.3566 91.8828C61.5111 92.0338 61.714 92.1125 61.9179 92.1125C62.0618 92.1125 62.2065 92.074 62.3359 91.9936L74.6243 84.4471C74.8661 84.2986 75.0141 84.0327 75.0141 83.7455V78.8216C75.0142 78.3687 74.6519 78.001 74.2055 78.001ZM73.3969 83.2834L64.1062 88.9892L69.2315 79.643V79.6422H73.3969V83.2834Z" fill="#27DFB3"/>
<path d="M99.2371 54.1707C99.2039 53.7711 98.8918 53.4543 98.498 53.4207C98.2295 53.3993 71.5996 51.5127 60.0729 82.15C59.9589 82.4529 60.0308 82.7942 60.2565 83.0232L64.1016 86.9253C64.282 87.1083 64.5343 87.1919 64.7874 87.1575C65.0389 87.1206 65.2589 86.9663 65.3818 86.7406L69.2343 79.6422H73.3973V83.2932L66.3603 87.8017C66.1525 87.9355 66.0158 88.1571 65.9883 88.4049C65.9609 88.6527 66.0465 88.8997 66.2204 89.0762L70.0656 92.9782C70.2201 93.135 70.4263 93.2187 70.6373 93.2187C70.7344 93.2187 70.8322 93.2015 70.926 93.1645C101.118 81.4664 99.2597 54.4424 99.2371 54.1707ZM94.9948 68.7304C92.1572 75.855 85.6637 85.5409 70.8369 91.4404L68.0794 88.6421L74.6376 84.4404C74.8721 84.2894 75.0144 84.0276 75.0144 83.7461V78.8223C75.0144 78.3694 74.6521 78.0017 74.2058 78.0017H68.7554C68.4603 78.0017 68.1893 78.165 68.047 78.4268L64.4832 84.9934L61.7718 82.241C71.8906 56.0451 93.4592 54.9733 97.652 55.0332C97.682 56.947 97.5089 62.4172 94.9948 68.7304Z" fill="#00FFB2"/>
<path d="M64.6062 89.6245C64.4307 89.3882 64.1509 89.2733 63.8768 89.3028C63.9051 89.0238 63.7919 88.7407 63.5598 88.5626C62.3403 87.6271 60.7667 87.3161 59.2408 87.7083C57.621 88.126 56.2964 89.247 55.6074 90.7856L50.8267 101.46C50.6868 101.771 50.7523 102.138 50.9908 102.379C51.1453 102.537 51.3523 102.62 51.5626 102.62C51.6758 102.62 51.7899 102.595 51.8974 102.546L62.4157 97.6937C63.9311 96.9954 65.0357 95.6512 65.4473 94.0075C65.8346 92.4606 65.5282 90.8629 64.6062 89.6245ZM63.8801 93.6037C63.5906 94.7617 62.8127 95.7078 61.7469 96.2002L53.1912 100.147L57.0801 91.4636C57.5644 90.382 58.4977 89.5925 59.6387 89.2988C59.9387 89.2217 60.2403 89.1839 60.5379 89.1839C61.0417 89.1839 61.5341 89.293 61.983 89.5056L61.2131 90.8884C61.0344 91.2092 61.0886 91.6122 61.3457 91.8723C61.6028 92.1341 61.9999 92.1882 62.3153 92.0069L63.6779 91.2248C64.0094 91.9486 64.0847 92.7847 63.8801 93.6037Z" fill="#27DFB3"/>
<path d="M99.2358 54.1715C99.2026 53.7719 98.8904 53.4551 98.4967 53.4215C98.1813 53.396 90.6849 52.8199 81.8689 56.9412C81.6288 57.0527 81.4581 57.2776 81.4112 57.5419C81.3643 57.8061 81.4484 58.0769 81.6352 58.2664L94.4606 71.2816C94.6135 71.4367 94.8197 71.522 95.0324 71.522C95.0801 71.522 95.1278 71.5179 95.1755 71.5097C95.4359 71.4621 95.6566 71.289 95.7674 71.0452C99.8293 62.0988 99.2617 54.4907 99.2358 54.1715ZM94.7703 69.2735L83.6141 57.9521C90.068 55.1874 95.7197 54.997 97.6516 55.0299C97.6839 56.992 97.5019 62.7094 94.7703 69.2735Z" fill="#27DFB3"/>
<path d="M86.4693 66.3775C83.7497 63.6177 79.3256 63.6177 76.6061 66.3775C73.8865 69.1373 73.8865 73.6268 76.6061 76.3866C77.9655 77.7669 79.7518 78.4563 81.5373 78.4563C83.3236 78.4563 85.1091 77.7661 86.4693 76.3866C89.1888 73.6268 89.1888 69.1372 86.4693 66.3775ZM85.3259 75.2262C83.2371 77.3458 79.8383 77.3458 77.7496 75.2262C75.6608 73.1065 75.6608 69.6575 77.7496 67.5378C78.7936 66.4783 80.1659 65.9482 81.5374 65.9482C82.9089 65.9482 84.2812 66.4783 85.326 67.5378C87.4146 69.6575 87.4146 73.1065 85.3259 75.2262Z" fill="#27DFB3"/>
<path d="M83.1418 73.0146C82.2555 73.9157 80.8129 73.9148 79.9258 73.0146C79.0395 72.1144 79.0395 70.6512 79.9258 69.751C80.8121 68.8515 82.2547 68.8508 83.1418 69.751C83.4572 70.0718 83.9699 70.0718 84.2852 69.751C84.6014 69.4301 84.6014 68.9115 84.2852 68.5906C82.769 67.0512 80.2994 67.0512 78.7824 68.5906C77.2653 70.1301 77.2653 72.6355 78.7824 74.1749C79.5409 74.9447 80.538 75.3296 81.5342 75.3296C82.5313 75.3296 83.5276 74.9447 84.2852 74.1749C84.6014 73.8541 84.6014 73.3354 84.2852 73.0146C83.9698 72.6938 83.4572 72.6938 83.1418 73.0146Z" fill="#27DFB3"/>
</g>
<defs>
<filter id="filter0_d_687_6669" x="0" y="0" width="156" height="156" filterUnits="userSpaceOnUse" color-interpolation-filters="sRGB">
<feFlood flood-opacity="0" result="BackgroundImageFix"/>
<feColorMatrix in="SourceAlpha" type="matrix" values="0 0 0 0 0 0 0 0 0 0 0 0 0 0 0 0 0 0 127 0" result="hardAlpha"/>
<feOffset/>
<feGaussianBlur stdDeviation="13.5"/>
<feColorMatrix type="matrix" values="0 0 0 0 0.141176 0 0 0 0 0.988235 0 0 0 0 0.835765 0 0 0 1 0"/>
<feBlend mode="normal" in2="BackgroundImageFix" result="effect1_dropShadow_687_6669"/>
<feBlend mode="normal" in="SourceGraphic" in2="effect1_dropShadow_687_6669" result="shape"/>
</filter>
<clipPath id="clip0_687_6669">
<rect width="48.5233" height="49.2414" fill="white" transform="translate(50.7539 53.3794)"/>
</clipPath>
</defs>
</svg>
