<svg width="156" height="156" viewBox="0 0 156 156" fill="none" xmlns="http://www.w3.org/2000/svg">
<g opacity="0.1" filter="url(#filter0_d_687_6656)">
<path fill-rule="evenodd" clip-rule="evenodd" d="M78 129C106.167 129 129 106.167 129 78C129 49.8335 106.167 27 78 27C49.8335 27 27 49.8335 27 78C27 106.167 49.8335 129 78 129Z" fill="#D9B346"/>
<path fill-rule="evenodd" clip-rule="evenodd" d="M78 129C106.167 129 129 106.167 129 78C129 49.8335 106.167 27 78 27C49.8335 27 27 49.8335 27 78C27 106.167 49.8335 129 78 129Z" stroke="#E90A0A"/>
</g>
<g clip-path="url(#clip0_687_6656)">
<path d="M100.041 69.1289L97.4322 70.1836C98.4485 72.6939 98.9648 75.3554 98.9648 78.0938C98.9648 89.7255 89.5028 99.1875 77.8711 99.1875C72.7412 99.1875 67.8247 97.2981 64.0029 93.9595L68.2141 93.3455L67.8103 90.5618L59.5898 91.7594V99.1875H62.4023V96.2804C66.6988 99.9317 72.1647 102 77.8711 102C91.052 102 101.777 91.2759 101.777 78.0938C101.777 74.9915 101.192 71.9757 100.041 69.1289Z" fill="#FEE400"/>
<path d="M77.6836 56.8125C82.8135 56.8125 87.7299 58.7019 91.5518 62.0405L87.3406 62.6545L87.7444 65.4382L95.9648 64.2406V56.8125H93.1523V59.7196C88.8559 56.0683 83.39 54 77.6836 54C64.5027 54 53.7773 64.7241 53.7773 77.9062C53.7773 81.0085 54.3623 84.0243 55.5132 86.8711L58.1225 85.8164C57.1062 83.3061 56.5898 80.6446 56.5898 77.9062C56.5898 66.2745 66.0518 56.8125 77.6836 56.8125V56.8125Z" fill="#FEE400"/>
<path d="M90.4336 79.4062V76.5938H87.479C87.2383 74.9343 86.5961 73.417 85.6334 72.1321L87.7199 70.0446L85.7314 68.056L83.6449 70.1436C82.36 69.181 80.8429 68.5388 79.1836 68.2984V65.3438H76.3711V68.2984C74.7118 68.5388 73.1947 69.181 71.9098 70.1436L69.8233 68.056L67.8348 70.0446L69.9213 72.1321C68.9586 73.4169 68.3164 74.9343 68.0757 76.5938H65.1211V79.4062H68.0757C68.3164 81.0657 68.9586 82.583 69.9213 83.8679L67.8348 85.9554L69.8233 87.944L71.9098 85.8564C73.1947 86.819 74.7118 87.4612 76.3711 87.7016V90.6562H79.1836V87.7016C80.8429 87.4612 82.36 86.819 83.6449 85.8564L85.7314 87.944L87.7199 85.9554L85.6334 83.8679C86.5961 82.5831 87.2383 81.0657 87.479 79.4062H90.4336ZM77.7773 82.2188C75.451 82.2188 73.5586 80.3263 73.5586 78C73.5586 75.6737 75.451 73.7812 77.7773 73.7812C80.1037 73.7812 81.9961 75.6737 81.9961 78C81.9961 80.3263 80.1037 82.2188 77.7773 82.2188Z" fill="#FEE400"/>
</g>
<defs>
<filter id="filter0_d_687_6656" x="0" y="0" width="156" height="156" filterUnits="userSpaceOnUse" color-interpolation-filters="sRGB">
<feFlood flood-opacity="0" result="BackgroundImageFix"/>
<feColorMatrix in="SourceAlpha" type="matrix" values="0 0 0 0 0 0 0 0 0 0 0 0 0 0 0 0 0 0 127 0" result="hardAlpha"/>
<feOffset/>
<feGaussianBlur stdDeviation="13.5"/>
<feColorMatrix type="matrix" values="0 0 0 0 0.988235 0 0 0 0 0.729412 0 0 0 0 0.141176 0 0 0 1 0"/>
<feBlend mode="normal" in2="BackgroundImageFix" result="effect1_dropShadow_687_6656"/>
<feBlend mode="normal" in="SourceGraphic" in2="effect1_dropShadow_687_6656" result="shape"/>
</filter>
<clipPath id="clip0_687_6656">
<rect width="48" height="48" fill="white" transform="translate(53.7773 54)"/>
</clipPath>
</defs>
</svg>
