<svg width="24" height="24" viewBox="0 0 24 24" fill="none" xmlns="http://www.w3.org/2000/svg">
<path d="M12 0C9.62663 0 7.30655 0.703788 5.33316 2.02236C3.35977 3.34094 1.8217 5.21508 0.913451 7.4078C0.00519941 9.60051 -0.232441 12.0133 0.230582 14.3411C0.693605 16.6689 1.83649 18.807 3.51472 20.4853C5.19295 22.1635 7.33115 23.3064 9.65892 23.7694C11.9867 24.2324 14.3995 23.9948 16.5922 23.0865C18.7849 22.1783 20.6591 20.6402 21.9776 18.6668C23.2962 16.6934 24 14.3734 24 12C24 10.4241 23.6896 8.8637 23.0866 7.4078C22.4835 5.95189 21.5996 4.62902 20.4853 3.51472C19.371 2.40041 18.0481 1.5165 16.5922 0.913445C15.1363 0.310389 13.5759 0 12 0ZM12 21.6C10.1013 21.6 8.24524 21.037 6.66653 19.9821C5.08782 18.9272 3.85736 17.4279 3.13076 15.6738C2.40416 13.9196 2.21405 11.9893 2.58447 10.1271C2.95488 8.26491 3.8692 6.55436 5.21178 5.21177C6.55436 3.86919 8.26492 2.95488 10.1271 2.58446C11.9894 2.21404 13.9196 2.40415 15.6738 3.13076C17.4279 3.85736 18.9272 5.08781 19.9821 6.66652C21.037 8.24524 21.6 10.1013 21.6 12C21.6 14.5461 20.5886 16.9879 18.7882 18.7882C16.9879 20.5886 14.5461 21.6 12 21.6ZM14.52 9.156L13.2 9.924V6C13.2 5.68174 13.0736 5.37651 12.8485 5.15147C12.6235 4.92643 12.3183 4.8 12 4.8C11.6817 4.8 11.3765 4.92643 11.1515 5.15147C10.9264 5.37651 10.8 5.68174 10.8 6V12C10.8 12 10.8 12 10.8 12.072C10.7944 12.1519 10.7944 12.2321 10.8 12.312C10.8186 12.3857 10.8427 12.4579 10.872 12.528C10.872 12.528 10.872 12.528 10.872 12.6C10.9293 12.6851 10.9935 12.7654 11.064 12.84C11.1609 12.9361 11.2749 13.0134 11.4 13.068H11.496C11.6523 13.1484 11.8244 13.1934 12 13.2C12.1399 13.196 12.2779 13.1676 12.408 13.116H12.516H12.6L15.72 11.316C15.9969 11.1569 16.1992 10.8943 16.2825 10.586C16.3658 10.2776 16.3231 9.94888 16.164 9.672C16.0049 9.39511 15.7423 9.19278 15.434 9.10951C15.1256 9.02625 14.7969 9.06887 14.52 9.228V9.156Z" fill="#FFF9F9"/>
</svg>
