<svg width="19" height="22" viewBox="0 0 19 22" fill="none" xmlns="http://www.w3.org/2000/svg">
<path d="M11.6749 11L18.304 3.84998C18.5943 3.53614 18.7574 3.11049 18.7574 2.66665C18.7574 2.22281 18.5943 1.79716 18.304 1.48332C18.0137 1.16948 17.62 0.993164 17.2095 0.993164C16.7989 0.993164 16.4052 1.16948 16.1149 1.48332L9.50113 8.64998L2.88738 1.48332C2.59708 1.16948 2.20334 0.993164 1.79279 0.993164C1.38224 0.993164 0.988511 1.16948 0.69821 1.48332C0.407908 1.79716 0.244819 2.22281 0.244819 2.66665C0.244819 3.11049 0.407908 3.53614 0.69821 3.84998L7.32738 11L0.69821 18.15C0.553712 18.3049 0.439021 18.4893 0.360753 18.6924C0.282484 18.8955 0.242188 19.1133 0.242188 19.3333C0.242188 19.5533 0.282484 19.7712 0.360753 19.9743C0.439021 20.1774 0.553712 20.3617 0.69821 20.5166C0.841528 20.6729 1.01204 20.7969 1.1999 20.8815C1.38777 20.9661 1.58928 21.0096 1.79279 21.0096C1.99631 21.0096 2.19782 20.9661 2.38568 20.8815C2.57355 20.7969 2.74406 20.6729 2.88738 20.5166L9.50113 13.35L16.1149 20.5166C16.2582 20.6729 16.4287 20.7969 16.6166 20.8815C16.8044 20.9661 17.0059 21.0096 17.2095 21.0096C17.413 21.0096 17.6145 20.9661 17.8024 20.8815C17.9902 20.7969 18.1607 20.6729 18.304 20.5166C18.4485 20.3617 18.5632 20.1774 18.6415 19.9743C18.7198 19.7712 18.7601 19.5533 18.7601 19.3333C18.7601 19.1133 18.7198 18.8955 18.6415 18.6924C18.5632 18.4893 18.4485 18.3049 18.304 18.15L11.6749 11Z" fill="#B2A4A4"/>
</svg>
