<svg width="29" height="30" viewBox="0 0 29 30" fill="none" xmlns="http://www.w3.org/2000/svg">
<path fill-rule="evenodd" clip-rule="evenodd" d="M26.1769 2.51506C26.8966 3.26892 27.4581 4.17195 27.8255 5.16632C28.2492 6.34604 28.4753 7.59358 28.4938 8.85393C28.5826 10.4457 28.5826 10.9614 28.5826 15.0249C28.5826 19.0884 28.562 19.5958 28.4938 21.1959C28.4699 22.4401 28.2461 23.6676 27.8287 24.8319C27.4608 25.8262 26.8991 26.7292 26.1795 27.4832C25.46 28.2373 24.5983 28.8259 23.6496 29.2115C22.5389 29.6475 21.3657 29.8832 20.1799 29.9084C18.6641 29.9999 18.1673 29.9999 14.2913 29.9999C10.4153 29.9999 9.93123 29.9783 8.40274 29.9084C7.2145 29.8675 6.04164 29.6143 4.93466 29.1599C3.98561 28.775 3.12361 28.1868 2.40374 27.433C1.68387 26.6792 1.12197 25.7763 0.753929 24.782C0.33649 23.616 0.112693 22.3885 0.0888843 21.1443C0 19.5525 0 19.0352 0 14.9733C0 10.9098 0.0206338 10.4025 0.0888843 8.80237C0.112081 7.55959 0.336974 6.33001 0.753929 5.16632C1.12094 4.17168 1.6823 3.26843 2.40199 2.51451C3.12169 1.76059 3.98382 1.17265 4.93308 0.788421C6.04216 0.350301 7.21453 0.114033 8.39956 0.0898199C9.91536 0 10.4122 0 14.2881 0C18.1641 0 18.6482 0.0199599 20.1767 0.0898199C21.3627 0.115338 22.5359 0.351557 23.6464 0.788421C24.5954 1.1731 25.4573 1.7612 26.1769 2.51506ZM25.3987 23.8289C25.7151 22.9295 25.8821 21.9798 25.8923 21.0212V21.0229H25.9098C25.978 19.4327 25.978 18.997 25.978 14.9451C25.978 10.8915 25.9606 10.4474 25.8923 8.86558C25.8775 7.91774 25.7107 6.97927 25.3987 6.08947C25.1602 5.44255 24.7952 4.85504 24.3273 4.36464C23.8593 3.87424 23.2987 3.49179 22.6814 3.24184C21.8328 2.91096 20.9361 2.73596 20.0307 2.72454C18.4959 2.63306 18.0991 2.63306 14.231 2.63306C10.363 2.63306 9.93917 2.65302 8.42972 2.72454C7.52505 2.73779 6.62916 2.91273 5.78065 3.24184C4.52834 3.74417 3.53632 4.7771 3.05222 6.08947C2.73582 6.98837 2.56886 7.93747 2.5586 8.89552C2.47447 10.5073 2.47447 10.9215 2.47447 14.975C2.47447 19.0269 2.49035 19.4727 2.5586 21.0528C2.57338 22.0007 2.74025 22.9391 3.05222 23.8289C3.29163 24.477 3.65819 25.0652 4.12818 25.5554C4.59818 26.0457 5.16114 26.427 5.78065 26.6749C6.62874 27.0056 7.52489 27.1806 8.42972 27.1922C9.96615 27.2837 10.3614 27.2837 14.231 27.2837C18.0975 27.2837 18.5228 27.2654 20.0307 27.1922C20.936 27.18 21.8326 27.005 22.6814 26.6749C23.2987 26.4255 23.8594 26.0434 24.3274 25.5533C24.7954 25.0631 25.1603 24.4758 25.3987 23.8289ZM21.9122 8.78233C22.8572 8.78233 23.6232 7.97954 23.6232 6.98925C23.6232 5.99897 22.8572 5.19618 21.9122 5.19618C20.9672 5.19618 20.2012 5.99897 20.2012 6.98925C20.2012 7.97954 20.9672 8.78233 21.9122 8.78233ZM14.2845 7.27192C12.338 7.27192 10.4712 8.08225 9.09482 9.52464C7.71843 10.967 6.94518 12.9233 6.94518 14.9632C6.94518 17.003 7.71843 18.9593 9.09482 20.4017C10.4712 21.8441 12.338 22.6544 14.2845 22.6544C16.231 22.6544 18.0978 21.8441 19.4742 20.4017C20.8505 18.9593 21.6238 17.003 21.6238 14.9632C21.6238 12.9233 20.8505 10.967 19.4742 9.52464C18.0978 8.08225 16.231 7.27192 14.2845 7.27192ZM14.2845 19.9582C13.0199 19.9582 11.8072 19.4317 10.913 18.4947C10.0188 17.5576 9.51648 16.2867 9.51648 14.9615C9.51648 13.6363 10.0188 12.3654 10.913 11.4284C11.8072 10.4913 13.0199 9.96486 14.2845 9.96486C15.549 9.96486 16.7618 10.4913 17.656 11.4284C18.5501 12.3654 19.0525 13.6363 19.0525 14.9615C19.0525 16.2867 18.5501 17.5576 17.656 18.4947C16.7618 19.4317 15.549 19.9582 14.2845 19.9582Z" fill="#FED120"/>
</svg>
