<svg width="29" height="30" viewBox="0 0 29 30" fill="none" xmlns="http://www.w3.org/2000/svg">
<path fill-rule="evenodd" clip-rule="evenodd" d="M6.98334 3.61175C6.98334 5.60647 5.42356 7.2235 3.49948 7.2235C1.5754 7.2235 0.015625 5.60647 0.015625 3.61175C0.015625 1.61704 1.5754 0 3.49948 0C5.42356 0 6.98334 1.61704 6.98334 3.61175ZM10.2699 29.9986V9.96063H16.0306V12.7008H16.1119C16.9128 11.1277 18.8712 9.46541 21.793 9.46541C27.8786 9.46541 28.9996 13.6136 28.9996 19.0115V30.0002H22.9952V20.2544C22.9952 17.9319 22.957 14.9425 19.8728 14.9425C16.7456 14.9425 16.2711 17.4747 16.2711 20.0894V29.9986H10.2699ZM6.501 9.96063H0.490234V29.9986H6.501V9.96063Z" fill="#FED120"/>
</svg>
