<?xml version="1.0" encoding="utf-8"?>
<!-- Generator: Adobe Illustrator 26.0.1, SVG Export Plug-In . SVG Version: 6.00 Build 0)  -->
<svg version="1.1" id="Layer_1" xmlns="http://www.w3.org/2000/svg" xmlns:xlink="http://www.w3.org/1999/xlink" x="0px" y="0px"
	 viewBox="0 0 233 165" style="enable-background:new 0 0 233 165;" xml:space="preserve">
<style type="text/css">
	.st0{fill:#FCBA24;}
	.st1{fill:#FFFFFF;}
	.st2{fill:#E435DF;}
	.st3{fill-rule:evenodd;clip-rule:evenodd;fill:url(#SVGID_1_);}
	.st4{fill-rule:evenodd;clip-rule:evenodd;fill:url(#SVGID_00000119831461213955571770000009864163518990972804_);}
	.st5{fill-rule:evenodd;clip-rule:evenodd;fill:url(#SVGID_00000053513429340741396660000006077257227630220673_);}
	.st6{fill:url(#SVGID_00000121974481990788778040000011703476289058880446_);}
	.st7{fill-rule:evenodd;clip-rule:evenodd;fill:url(#SVGID_00000090270681910129228920000017409746686401055415_);}
	.st8{fill-rule:evenodd;clip-rule:evenodd;fill:url(#SVGID_00000047056685663426527380000000654305681167700135_);}
	.st9{fill:url(#SVGID_00000124145245645558453060000015205468780344619415_);}
	.st10{fill-rule:evenodd;clip-rule:evenodd;fill:url(#SVGID_00000173857421655186769440000006913566292692053666_);}
</style>
<path class="st0" d="M67,116.8h-1.4c-0.1-0.3-0.1-0.9-0.2-1.8c-0.6,1-1.7,1.9-3.8,1.9c-3.6,0-5.5-3-5.5-6.9c0-4.1,2.1-7.1,5.9-7.1
	c2.9,0,4.8,1.8,5.1,4.2h-1.8c-0.4-1.4-1.3-2.5-3.3-2.5c-2.8,0-3.9,2.5-3.9,5.4c0,2.7,1.1,5.3,3.9,5.3c2.7,0,3.4-2,3.4-4.1v-0.1h-3.4
	v-1.7H67V116.8z"/>
<path class="st0" d="M76.9,114.6c0,0.9,0.1,1.9,0.1,2.2h-1.8c-0.1-0.2-0.1-0.7-0.2-1.2c-0.3,0.6-1.1,1.4-2.9,1.4
	c-2.2,0-3.2-1.5-3.2-2.9c0-2.1,1.7-3.1,4.5-3.1c0.6,0,1.2,0,1.6,0v-0.8c0-0.8-0.3-1.8-1.9-1.8c-1.5,0-1.8,0.7-1.9,1.5h-1.7
	c0.1-1.4,1-2.9,3.7-2.9c2.4,0,3.7,1,3.7,3.2V114.6z M75.1,112.2c-0.3,0-1,0-1.5,0c-1.8,0-2.8,0.5-2.8,1.8c0,0.9,0.6,1.6,1.8,1.6
	c2.2,0,2.5-1.5,2.5-3.1V112.2z"/>
<path class="st0" d="M79,109.7c0-0.8,0-1.7,0-2.5h1.9c0,0.3,0.1,1,0.1,1.4c0.5-0.8,1.3-1.6,2.9-1.6c1.4,0,2.4,0.7,2.8,1.7
	c0.5-0.9,1.5-1.7,3.2-1.7c1.7,0,3.2,1,3.2,3.6v6.4h-1.9v-6.1c0-1.1-0.4-2.2-1.9-2.2c-1.5,0-2.2,1.1-2.2,2.8v5.6h-1.9v-6.1
	c0-1.2-0.4-2.3-1.9-2.3c-1.5,0-2.3,1.1-2.3,3v5.4H79L79,109.7L79,109.7z"/>
<path class="st0" d="M97.7,112.4c0,1.8,0.9,3.1,2.3,3.1c1.3,0,1.8-0.7,2.1-1.4h1.7c-0.3,1.2-1.3,2.9-3.8,2.9c-2.8,0-4-2.4-4-4.9
	c0-2.9,1.4-5.1,4.1-5.1c2.9,0,3.9,2.4,3.9,4.5c0,0.3,0,0.5,0,0.8L97.7,112.4L97.7,112.4z M102.2,111.1c0-1.5-0.7-2.7-2.2-2.7
	c-1.5,0-2.1,1.1-2.3,2.7H102.2z"/>
<path class="st0" d="M106.9,114c0.3,1,1,1.6,2.3,1.6c1.3,0,1.9-0.5,1.9-1.4c0-0.9-0.4-1.2-2.2-1.6c-2.9-0.7-3.5-1.6-3.5-2.8
	c0-1.4,1-2.7,3.6-2.7c2.6,0,3.6,1.5,3.8,2.8H111c-0.1-0.6-0.6-1.4-2-1.4c-1.3,0-1.7,0.6-1.7,1.2c0,0.7,0.4,1,2.1,1.4
	c3,0.7,3.6,1.7,3.6,3.1c0,1.6-1.3,2.9-3.9,2.9c-2.6,0-3.9-1.3-4.1-3H106.9z"/>
<path class="st1" d="M118,105.6h-4V104h10v1.6h-4.1V117H118V105.6z"/>
<path class="st1" d="M134,112c0,2.8-1.6,5-4.5,5c-2.8,0-4.5-2.1-4.5-5c0-2.8,1.6-5,4.6-5C132.2,107,134,109,134,112z M126.9,112
	c0,2,1,3.5,2.6,3.5c1.6,0,2.6-1.4,2.6-3.5c0-2.1-0.9-3.5-2.6-3.5C127.8,108.5,126.9,109.8,126.9,112z"/>
<path class="st2" d="M138.5,117l-3.5-13h2.1c1.1,4.6,2.3,9.4,2.6,10.9h0c0.4-1.8,2.1-7.6,2.9-10.9h1.8c0.8,2.8,2.5,9.1,2.8,10.8h0
	c0.4-2.4,2.2-8.3,2.8-10.8h1.9l-3.8,13h-2.1c-0.8-3-2.4-8.8-2.7-10.5h0c-0.4,2-2,7.6-2.8,10.5H138.5z"/>
<path class="st2" d="M154.7,112.4c0,1.8,0.9,3.1,2.3,3.1c1.3,0,1.8-0.7,2.1-1.4h1.7c-0.3,1.2-1.3,2.9-3.8,2.9c-2.8,0-4-2.4-4-4.9
	c0-2.9,1.4-5.1,4.1-5.1c2.9,0,3.9,2.4,3.9,4.5c0,0.3,0,0.5,0,0.8L154.7,112.4L154.7,112.4z M159.2,111.1c0-1.5-0.7-2.7-2.2-2.7
	c-1.5,0-2.1,1.1-2.3,2.7H159.2z"/>
<path class="st2" d="M163,103h2.1v5.5c0.5-0.8,1.5-1.5,3.4-1.5c2.8,0,4.5,2,4.5,4.8c0,2.9-1.6,5.2-4.7,5.2c-1.7,0-2.6-0.6-3.1-1.4
	c0,0.5,0,0.9-0.1,1.2H163c0-1.1,0-2.1,0-3.2V103z M170.8,111.8c0-2-1-3.3-2.8-3.3c-2.2,0-3,1.3-3,3.5c0,1.9,0.7,3.5,2.9,3.5
	C169.8,115.5,170.8,114.1,170.8,111.8z"/>
<path class="st2" d="M174.3,107.3c0.2-1.5,1.2-3.2,3.7-3.2c2.4,0,3.5,1.6,3.5,3.3c0,1.5-0.8,2.3-1.5,2.6v0.1c1,0.3,2,1.2,2,3.1
	c0,1.9-1.1,3.9-4,3.9c-2.7,0-3.8-1.9-4-3.5h1.7c0.2,1.1,0.9,2,2.3,2c1.5,0,2.2-1.1,2.2-2.4c0-1.6-0.8-2.3-2.4-2.3H177v-1.5h0.7
	c1.4,0,2-0.6,2-1.9c0-1.1-0.6-1.8-1.9-1.8c-1.3,0-1.8,0.8-2,1.7L174.3,107.3L174.3,107.3z"/>
<linearGradient id="SVGID_1_" gradientUnits="userSpaceOnUse" x1="115.6114" y1="106.3221" x2="115.4274" y2="70.2461" gradientTransform="matrix(1 0 0 -1 0 165.2756)">
	<stop  offset="0.2348" style="stop-color:#3F1D5C"/>
	<stop  offset="1" style="stop-color:#F38EBB"/>
</linearGradient>
<path class="st3" d="M135.7,81.2c-0.5,0.5-1.2,0.8-1.7,1.3c-0.8,0.7-1.5,1.2-2.3,1.8c-11.1,8.7-27,7.4-35.4-3.3
	c-8.4-10.5-2.7-27.1,8.6-35.8c4.9-3.8,2.9,8.9,2.9,8.9c-6.2,5-7.5,14-2.7,20.1c3.5,4.3,9.2,6,14.6,4.7c2-0.5,3.9-1.5,5.5-2.7
	c1.3-1,2.7-2.2,4-3.2c2.3-1.8,4.9-3.8,7.2-5.7c0,0,0.2-0.2,0.3-0.2l0.5,0.5l0.2,0.2c0.2,0.3,0.5,0.7,0.7,1c0.8,1.5,0.8,3.2,0.8,5
	C138.8,76.7,137.7,79.3,135.7,81.2z"/>
<linearGradient id="SVGID_00000097488498982873289060000006300631633654042007_" gradientUnits="userSpaceOnUse" x1="96.9454" y1="90.7354" x2="110.325" y2="93.3328" gradientTransform="matrix(1 0 0 -1 0 165.2756)">
	<stop  offset="0" style="stop-color:#210A3C"/>
	<stop  offset="1" style="stop-color:#210A3C;stop-opacity:0"/>
</linearGradient>
<path style="fill-rule:evenodd;clip-rule:evenodd;fill:url(#SVGID_00000097488498982873289060000006300631633654042007_);" d="
	M108,89c0,0-8.6-6.7-2.7-14.5c-0.2-0.2-0.2-0.2-0.3-0.3c-4.2-5.3-3.9-12.9,0.5-17.9C105.5,56.4,88.5,74.6,108,89z"/>
<linearGradient id="SVGID_00000068652540046485334300000006175155738935608730_" gradientUnits="userSpaceOnUse" x1="139.4746" y1="90.0319" x2="132.7746" y2="92.6616" gradientTransform="matrix(1 0 0 -1 0 165.2756)">
	<stop  offset="0" style="stop-color:#210A3C"/>
	<stop  offset="1" style="stop-color:#210A3C;stop-opacity:0"/>
</linearGradient>
<path style="fill-rule:evenodd;clip-rule:evenodd;fill:url(#SVGID_00000068652540046485334300000006175155738935608730_);" d="
	M130.6,71.6C136.5,74,136,81,136,81c1.5-2,2.7-4.3,2.9-6.9c0-1.3-0.2-2.7-0.7-3.8c-0.2-0.7-0.2-1.7-0.5-2.3c0-0.2-1.2-1-1.2-1
	C134.7,68.5,132.6,70.1,130.6,71.6z"/>
<linearGradient id="SVGID_00000049939696832383048760000008991299508496805790_" gradientUnits="userSpaceOnUse" x1="133.3142" y1="96.6179" x2="151.1412" y2="98.6024" gradientTransform="matrix(1 0 0 -1 0 165.2756)">
	<stop  offset="0" style="stop-color:#FFD04C"/>
	<stop  offset="1" style="stop-color:#A856A1"/>
</linearGradient>
<path style="fill:url(#SVGID_00000049939696832383048760000008991299508496805790_);" d="M151.4,69.1c-2.2,1.7-4.5,3.5-6.9,5.4
	c-0.5,0.3-1,0.8-1.5,1.2c-1.5,1.2-3,2.3-4.4,3.3c-0.7,0.5-1.2,1-1.8,1.3c-0.5,0.5-1,0.7-1.5,1c1.7-1.3,2.9-3.7,3.2-5.7
	c0.3-1.5,0.3-2.8,0-4.3c-0.2-0.8-0.3-1.5-0.7-2.3c-0.3-0.8-0.8-1.3-1.3-2c-0.7-0.8-1.3-1.7-2-2.5c-0.2-0.2-0.8-0.8-0.8-0.8l-0.8-1
	l-0.5-0.5v-0.5c2.5-2,4.5-4.2,6.2-5.2c0.2,0,0.3-0.3,0.5-0.5c0.5-0.5,1-0.2,1.3-0.5c0,0,0.2,0,0.2-0.2c0.2-0.2,0.2-0.2,0.3-0.2v-0.2
	l4.2,5.5L151.4,69.1z"/>
<linearGradient id="SVGID_00000008150474003198447780000016751923837078242193_" gradientUnits="userSpaceOnUse" x1="132.2276" y1="105.4256" x2="140.9806" y2="105.4256" gradientTransform="matrix(1 0 0 -1 0 165.2756)">
	<stop  offset="0" style="stop-color:#D38F29"/>
	<stop  offset="1" style="stop-color:#74287C"/>
</linearGradient>
<path style="fill-rule:evenodd;clip-rule:evenodd;fill:url(#SVGID_00000008150474003198447780000016751923837078242193_);" d="
	M141,55.4c-1.5,1.2-3.7,3-5.4,5.9c-0.7,1.3-1,2-1.3,3.2c-0.8-0.8-1.3-1.5-2.2-2.5l8.7-6.7C140.9,55.3,140.9,55.3,141,55.4z"/>
<linearGradient id="SVGID_00000048465968067546417270000014764401036731548082_" gradientUnits="userSpaceOnUse" x1="106.5695" y1="101.3482" x2="141.5999" y2="105.4568" gradientTransform="matrix(1 0 0 -1 0 165.2756)">
	<stop  offset="0" style="stop-color:#F8D40A"/>
	<stop  offset="1" style="stop-color:#F47721"/>
</linearGradient>
<path style="fill-rule:evenodd;clip-rule:evenodd;fill:url(#SVGID_00000048465968067546417270000014764401036731548082_);" d="
	M141,55.3c0,0-10.9,8.4-19.6,15.2c-0.7,0.5-1.2,1-1.8,1.5c-1.3,0.8-2.9,1.2-4.5,1.2c-3.4,0-6.2-1.8-7.9-4.7
	c3.2-2.5,9.7-7.5,15.8-12.2c1.7-1.3,3.4-2.5,4.9-3.7c0.3-0.3,3.4-2.7,7.2-1.8C139,51.6,140.9,54.9,141,55.3z"/>
<linearGradient id="SVGID_00000056427825060299338780000008915796761757742266_" gradientUnits="userSpaceOnUse" x1="94.8518" y1="80.3262" x2="120.0481" y2="135.5181" gradientTransform="matrix(1 0 0 -1 0 165.2756)">
	<stop  offset="0" style="stop-color:#A856A1"/>
	<stop  offset="0.8687" style="stop-color:#FFD04C"/>
</linearGradient>
<path style="fill:url(#SVGID_00000056427825060299338780000008915796761757742266_);" d="M124.9,38.9c0,0.2,0,0.3-0.2,0.5
	c-0.5,1.7-1.8,3-3.2,4c-2.8,2.3-5.7,4.7-8.9,7c-1.8,1.5-4,2.8-5.7,4.5c-3.9,3.8-6.2,7.9-7.7,13.2c-0.8,2.8-0.8,6-0.2,8.9
	c1.2,4.8,4.9,8.9,8.9,12c-5.7-1.5-10.9-5.7-13.9-10.9c-2.7-4.7-3.7-10.5-2.7-16.1c0.2-0.7,0.2-1.3,0.3-2c0.5-1.8,1-3.5,1.8-5.2
	c2.5-4.8,6.7-8.5,11.1-11.9c4.2-3.3,8.6-6.5,12.6-9.9c0.3-0.2,3.9-3.2,3.9-3.2c1.2,1.5,2.3,3,3.2,4.7
	C124.9,36,125.3,37.4,124.9,38.9z"/>
<linearGradient id="SVGID_00000178899376651028116560000014182205371505540513_" gradientUnits="userSpaceOnUse" x1="113.4331" y1="133.8407" x2="103.2758" y2="97.7705" gradientTransform="matrix(1 0 0 -1 0 165.2756)">
	<stop  offset="0" style="stop-color:#EFD195;stop-opacity:0.82"/>
	<stop  offset="1" style="stop-color:#EFD195;stop-opacity:0"/>
</linearGradient>
<path style="fill-rule:evenodd;clip-rule:evenodd;fill:url(#SVGID_00000178899376651028116560000014182205371505540513_);" d="
	M91.7,72.3c0,0-1.5-20.1,32-31.1c0.8-1,1.2-2.2,1.2-3.5c0-1.2-0.2-2.3-1-3.8c-0.5-1.2-1.5-2.5-2.7-3.8c-6.7,5.4-13.1,10.4-19.8,15.7
	c-0.5,0.3-1.2,1.2-1.7,1.5c-0.5,0.5-1,1-1.5,1.5c-1.8,2-3.4,3.8-4.5,6.2c-1.7,3.5-2.7,7.4-2.7,11.4c0,0.8,0,1.7,0.2,2.5
	C91.2,70,91.6,71.1,91.7,72.3z"/>
</svg>
