<svg width="188" height="64" viewBox="0 0 188 64" fill="none" xmlns="http://www.w3.org/2000/svg">
<ellipse cx="73.5039" cy="60.8085" rx="37.5" ry="2.51275" fill="#F3F3F3"/>
<path d="M1.97266 49V24.5312H2.34766L7.22266 32.3594V49H1.97266ZM1.97266 19.5625V16.1875H6.33203L22.832 42.6719V49H20.3008L1.97266 19.5625ZM17.582 29.875V16.1875H22.832V37.7031H22.457L17.582 29.875ZM26.7227 48.9531V16.1875H43.7852V21.3438H31.9727V30.0625H39.3789V35.3125H31.9727V48.9531H26.7227ZM45.9414 21.2969V16.1875H66.2383V21.2969H58.7383V49H53.4883V21.2969H45.9414ZM68.582 49V43.8438L79.9727 21.3438H68.582V16.1875H85.7383V21.2031L74.3477 43.7031H85.7383V49H68.582ZM89.0664 41.9219V30.0625C89.0664 28.5312 89.7539 27.0469 91.1289 25.6094C92.7539 23.8906 94.8008 23.0312 97.2695 23.0312V27.8594C95.6445 27.8594 94.5977 28.5312 94.1289 29.875C94.0352 30.1562 93.9883 30.4375 93.9883 30.7188V41.2656C93.9883 42.4531 94.5352 43.3125 95.6289 43.8438C96.1289 44.0938 96.6914 44.2188 97.3164 44.2188V49.0469C94.2852 49.0469 91.9414 47.8281 90.2852 45.3906C89.4727 44.1719 89.0664 43.0156 89.0664 41.9219ZM99.3789 49.0469V44.2188C100.879 44.2188 101.863 43.5781 102.332 42.2969C102.457 41.9531 102.52 41.6406 102.52 41.3594V30.7188C102.52 29.4062 101.91 28.5312 100.691 28.0938C100.285 27.9375 99.832 27.8594 99.332 27.8594V23.0312C102.27 23.0312 104.535 24.2188 106.129 26.5938C106.941 27.8125 107.348 28.9688 107.348 30.0625V41.9219C107.348 43.4531 106.691 44.9531 105.379 46.4219C103.785 48.1406 101.785 49.0156 99.3789 49.0469ZM110.91 49V30.0625C110.91 28.5625 111.598 27.0781 112.973 25.6094C114.66 23.8594 116.754 22.9688 119.254 22.9375V27.9062C117.816 27.9062 116.816 28.4688 116.254 29.5938C116.066 29.9688 115.973 30.3281 115.973 30.6719V49H110.91ZM121.316 27.9062V22.9375C124.285 22.9375 126.613 24.1406 128.301 26.5469C129.207 27.7969 129.66 28.9688 129.66 30.0625V49H124.598V30.6719C124.598 29.7344 124.145 28.9844 123.238 28.4219C122.676 28.0781 122.035 27.9062 121.316 27.9062ZM133.223 41.9219V30.0156C133.285 28.4844 133.988 27 135.332 25.5625C136.988 23.9062 138.988 23.0625 141.332 23.0312V27.7188C140.113 27.7188 139.191 28.2656 138.566 29.3594C138.348 29.7344 138.238 30.0781 138.238 30.3906V33.2031H147.145V30.4375C147.145 29.125 146.426 28.2656 144.988 27.8594C144.582 27.7344 144.176 27.6719 143.77 27.6719V23.0312C145.988 23.0312 147.957 23.7969 149.676 25.3281C151.113 26.7031 151.848 28.25 151.879 29.9688V38.0312H138.238V41.9219C138.238 42.7344 138.691 43.4062 139.598 43.9375C140.16 44.25 140.77 44.4062 141.426 44.4062V49C138.52 49 136.223 47.8281 134.535 45.4844C133.66 44.2031 133.223 43.0156 133.223 41.9219ZM143.77 49V44.3594C145.582 44.3594 146.832 43.5938 147.52 42.0625C147.613 41.8438 147.691 41.6406 147.754 41.4531L151.926 42.9531C151.363 45.0781 150.098 46.7188 148.129 47.875C146.785 48.625 145.332 49 143.77 49Z" fill="#FCFCFC"/>
</svg>
