<svg width="24" height="24" viewBox="0 0 24 24" fill="none" xmlns="http://www.w3.org/2000/svg">
<g id="Iconly/Bulk/Message">
<g id="Group">
<path id="Fill 1" opacity="0.4" d="M22 15.9402C22 18.7302 19.76 20.9902 16.97 21.0002H16.96H7.05C4.27 21.0002 2 18.7502 2 15.9602V15.9502C2 15.9502 2.006 11.5242 2.014 9.2982C2.015 8.8802 2.495 8.6462 2.822 8.9062C5.198 10.7912 9.447 14.2282 9.5 14.2732C10.21 14.8422 11.11 15.1632 12.03 15.1632C12.95 15.1632 13.85 14.8422 14.56 14.2622C14.613 14.2272 18.767 10.8932 21.179 8.9772C21.507 8.7162 21.989 8.9502 21.99 9.3672C22 11.5762 22 15.9402 22 15.9402Z" fill="#D9D9D9"/>
<path id="Fill 4" d="M21.4769 5.6736C20.6109 4.0416 18.9069 2.9996 17.0309 2.9996H7.05086C5.17486 2.9996 3.47086 4.0416 2.60486 5.6736C2.41086 6.0386 2.50286 6.4936 2.82586 6.7516L10.2509 12.6906C10.7709 13.1106 11.4009 13.3196 12.0309 13.3196C12.0349 13.3196 12.0379 13.3196 12.0409 13.3196C12.0439 13.3196 12.0479 13.3196 12.0509 13.3196C12.6809 13.3196 13.3109 13.1106 13.8309 12.6906L21.2559 6.7516C21.5789 6.4936 21.6709 6.0386 21.4769 5.6736Z" fill="#D9D9D9"/>
</g>
</g>
</svg>
