<svg width="20" height="20" viewBox="0 0 20 20" fill="none" xmlns="http://www.w3.org/2000/svg">
<path d="M9.08203 0.407104C13.636 0.407104 17.332 4.21401 17.332 8.90467C17.332 13.5953 13.636 17.4022 9.08203 17.4022C4.52803 17.4022 0.832031 13.5953 0.832031 8.90467C0.832031 4.21401 4.52803 0.407104 9.08203 0.407104ZM9.08203 15.5139C12.6268 15.5139 15.4987 12.5558 15.4987 8.90467C15.4987 5.2526 12.6268 2.29545 9.08203 2.29545C5.53636 2.29545 2.66536 5.2526 2.66536 8.90467C2.66536 12.5558 5.53636 15.5139 9.08203 15.5139ZM16.8599 15.5809L19.4532 18.251L18.1561 19.587L15.5638 16.916L16.8599 15.5809V15.5809Z" fill="white"/>
</svg>
